<?xml version="1.0" encoding="utf-8"?>
<!-- Generator: Adobe Illustrator 16.0.3, SVG Export Plug-In . SVG Version: 6.00 Build 0)  -->
<!DOCTYPE svg PUBLIC "-//W3C//DTD SVG 1.1//EN" "http://www.w3.org/Graphics/SVG/1.1/DTD/svg11.dtd">
<svg version="1.1" id="Layer_1" xmlns="http://www.w3.org/2000/svg" xmlns:xlink="http://www.w3.org/1999/xlink" x="0px" y="0px"
	 width="439.477px" height="359.982px" viewBox="0 0 439.477 359.982" enable-background="new 0 0 439.477 359.982"
	 xml:space="preserve">
<g>
	<g>
		<path fill="none" stroke="#000000" stroke-width="7" stroke-linecap="square" stroke-linejoin="round" stroke-miterlimit="10" d="
			M32.146,156.908l67.065,9.135l-2.507,40.756l-67.782,2.511C28.923,209.31-13.473,179.149,32.146,156.908z"/>
		<path d="M97.315,287.528c-6.979-0.43-12.285-6.53-11.848-13.625l7.167-116.514l3.49-56.741c0.436-7.095,6.449-12.499,13.428-12.07
			l224.849,13.83c6.98,0.429,12.285,6.529,11.85,13.624l-10.658,173.257c-0.436,7.094-6.447,12.499-13.428,12.069L97.315,287.528z"
			/>
		<path fill="#FFFFFF" stroke="#000000" stroke-linecap="square" stroke-linejoin="round" stroke-miterlimit="10" d="
			M104.18,280.729c-6.614-0.406-11.647-6.1-11.241-12.715l6.682-108.626l3.253-52.9c0.407-6.615,6.1-11.647,12.714-11.241
			l213.096,13.107c6.615,0.407,11.648,6.099,11.242,12.714l-9.938,161.529c-0.404,6.613-6.098,11.646-12.713,11.239L104.18,280.729z
			"/>
		
			<ellipse transform="matrix(0.9981 0.0614 -0.0614 0.9981 11.2217 -1.4132)" fill="none" stroke="#000000" stroke-width="5" stroke-linecap="square" stroke-linejoin="round" stroke-miterlimit="10" cx="28.608" cy="181.899" rx="7.667" ry="8.334"/>
	</g>
	<path fill="none" stroke="#000000" stroke-width="7" stroke-miterlimit="10" d="M312.891,265.257l40.281-21.324l10.715-5.674
		L245.393,14.697C245.393,14.697,215.396,122.765,312.891,265.257z"/>
	<path fill="none" stroke="#000000" stroke-width="6" stroke-miterlimit="10" d="M364.981,240.062l44.207,78.778
		c0,0-5.73,39.059-34.725,18.807l-28.516-86.604L364.981,240.062z"/>
	<ellipse fill="none" stroke="#000000" stroke-width="4" stroke-miterlimit="10" cx="391.602" cy="325.92" rx="7.279" ry="7.11"/>
	<ellipse fill="none" stroke="#000000" stroke-width="4" stroke-miterlimit="10" cx="384.325" cy="305.793" rx="7.277" ry="7.11"/>
	<path fill="none" stroke="#000000" stroke-width="6" stroke-linecap="square" stroke-linejoin="round" stroke-miterlimit="10" d="
		M157.321,209.31c0,0-15.2,34.926,0,44.873l15.171,9.945l7.279-21.135C179.771,242.993,173.541,209.19,157.321,209.31z"/>
	<path fill="none" stroke="#000000" stroke-width="6" stroke-linecap="square" stroke-linejoin="round" stroke-miterlimit="10" d="
		M250.456,209.31c0,0-15.199,34.926,0,44.873l15.172,9.945l7.277-21.135C272.905,242.993,266.674,209.19,250.456,209.31z"/>
	<path fill="none" stroke="#000000" stroke-width="6" stroke-linecap="square" stroke-linejoin="round" stroke-miterlimit="10" d="
		M219.78,223.457c0,0-15.199,34.927,0,44.872l15.171,9.945l7.277-21.133C242.231,257.144,236.002,223.339,219.78,223.457z"/>
	<path fill="none" stroke="#000000" stroke-width="6" stroke-linecap="square" stroke-linejoin="round" stroke-miterlimit="10" d="
		M190.492,221.616c0,0-15.2,34.927,0,44.873l15.171,9.945l7.279-21.135C212.943,255.301,206.713,221.497,190.492,221.616z"/>
	<path fill="none" stroke="#000000" stroke-width="5" stroke-miterlimit="10" d="M292.042,194.542c0,0,3.834,22.427,24,53.589"/>
	<line fill="none" stroke="#000000" stroke-width="3" stroke-miterlimit="10" x1="258.301" y1="63.53" x2="316.042" y2="181.903"/>
	<path fill="none" stroke="#000000" stroke-width="6" stroke-linecap="square" stroke-linejoin="round" stroke-miterlimit="10" d="
		M131.061,223.457c0,0-15.2,34.928,0,44.873l15.171,9.944l7.278-21.133C153.511,257.144,147.28,223.338,131.061,223.457z"/>
	<path fill="none" stroke="#000000" stroke-width="8" stroke-miterlimit="10" d="M150.052,124.46"/>
	<path fill="none" stroke="#000000" stroke-width="8" stroke-miterlimit="10" d="M189.374,181.903"/>
	<path fill="none" stroke="#000000" stroke-width="8" stroke-miterlimit="10" d="M183.737,125.128"/>
	<path fill="none" stroke="#000000" stroke-width="8" stroke-miterlimit="10" d="M202.486,170.53"/>
	<path fill="none" stroke="#000000" stroke-width="8" stroke-miterlimit="10" d="M198.339,132.166"/>
	<path fill="none" stroke="#000000" stroke-width="7" stroke-miterlimit="10" d="M179.339,189.774
		c7.683,0.191,15.864,7.996,23.714,1.816c13.188-10.396,0.112-35.016-3.138-46.722c-7.179-25.854,25.398-48.691-13.777-32.063
		c-21.733,9.226-80.04,42.627-47.261,64.648C156.352,189.192,179.28,189.772,179.339,189.774z"/>
	<path fill="none" stroke="#000000" stroke-width="6" stroke-miterlimit="10" d="M182.653,135.128c0,0,22.313,36.788,14.377,48.445"
		/>
	<path fill="none" stroke="#000000" stroke-width="6" stroke-miterlimit="10" d="M165.168,142.166c0,0-20.982,11.119-23.314,24.742"
		/>
	<path fill="none" stroke="#000000" stroke-width="6" stroke-miterlimit="10" d="M170.625,166.908c0,0,2.318,8.877,0,16.666"/>
</g>
</svg>
