<?xml version="1.0" encoding="utf-8"?>
<!-- Generator: Adobe Illustrator 16.0.3, SVG Export Plug-In . SVG Version: 6.00 Build 0)  -->
<!DOCTYPE svg PUBLIC "-//W3C//DTD SVG 1.1//EN" "http://www.w3.org/Graphics/SVG/1.1/DTD/svg11.dtd">
<svg version="1.1" id="Layer_1" xmlns="http://www.w3.org/2000/svg" xmlns:xlink="http://www.w3.org/1999/xlink" x="0px" y="0px"
	 width="439.333px" height="360.667px" viewBox="0 0 439.333 360.667" enable-background="new 0 0 439.333 360.667"
	 xml:space="preserve">
<path fill="none" stroke="#000000" stroke-width="7" stroke-miterlimit="10" d="M-278.128-287.167"/>
<g>
	<g>
		<path fill="none" stroke="#000000" stroke-width="4" stroke-miterlimit="10" d="M30.039,160.946l61.615,8.8l-2.507,40.756
			l-62.332,2.845C26.815,213.347-12.014,183.407,30.039,160.946z"/>
		
			<ellipse transform="matrix(-0.0614 0.9981 -0.9981 -0.0614 213.8988 170.757)" fill="none" stroke="#000000" stroke-width="4" stroke-miterlimit="10" cx="26.66" cy="185.953" rx="8.333" ry="7.047"/>
	</g>
	<path fill="none" stroke="#000000" stroke-width="5" stroke-miterlimit="10" d="M243.324,100.975l-134.295-8.26
		c-6.979-0.429-12.992,4.975-13.428,12.07l-3.49,56.741l-7.167,116.515c-0.437,7.094,4.869,13.195,11.848,13.624l224.849,13.83
		c6.979,0.43,12.992-4.976,13.428-12.069l2.292-37.263l-24.992,13.231C267.243,203.441,249.44,144.875,243.324,100.975z"/>
	<path fill="none" stroke="#000000" stroke-width="5" stroke-miterlimit="10" d="M348.726,117.835
		c0.437-7.095-4.868-13.195-11.848-13.624l-43.95-2.703l50.896,96.024L348.726,117.835z"/>
	<path fill="none" stroke="#000000" stroke-width="6" stroke-miterlimit="10" d="M364.458,244.198l44.207,78.778
		c0,0-5.729,39.058-34.724,18.806l-28.515-86.604L364.458,244.198z"/>
	<ellipse fill="none" stroke="#000000" stroke-width="4" stroke-miterlimit="10" cx="391.081" cy="330.056" rx="7.278" ry="7.11"/>
	<ellipse fill="none" stroke="#000000" stroke-width="4" stroke-miterlimit="10" cx="383.802" cy="309.929" rx="7.278" ry="7.11"/>
	<path fill="none" stroke="#000000" stroke-width="3" stroke-linecap="square" stroke-linejoin="round" stroke-miterlimit="10" d="
		M153.021,229.969c0,0-13.461,26.559,0,34.123l13.436,7.563l6.446-16.071C172.903,255.583,167.385,229.878,153.021,229.969z"/>
	<path fill="none" stroke="#000000" stroke-width="3" stroke-linecap="square" stroke-linejoin="round" stroke-miterlimit="10" d="
		M235.5,229.969c0,0-13.46,26.559,0,34.123l13.436,7.563l6.446-16.071C255.382,255.583,249.866,229.878,235.5,229.969z"/>
	<path fill="none" stroke="#000000" stroke-width="3" stroke-linecap="square" stroke-linejoin="round" stroke-miterlimit="10" d="
		M208.336,240.727c0,0-13.46,26.559,0,34.121l13.436,7.563l6.446-16.07C228.218,266.342,222.701,240.637,208.336,240.727z"/>
	<path fill="none" stroke="#000000" stroke-width="3" stroke-linecap="square" stroke-linejoin="round" stroke-miterlimit="10" d="
		M182.398,239.327c0,0-13.461,26.559,0,34.122l13.436,7.563l6.447-16.07C202.28,264.941,196.762,239.237,182.398,239.327z"/>
	<path fill="none" stroke="#000000" stroke-width="5" stroke-miterlimit="10" d="M291.518,198.679c0,0,3.834,22.427,24,53.589"/>
	<line fill="none" stroke="#000000" stroke-width="3" stroke-miterlimit="10" x1="257.78" y1="67.667" x2="315.518" y2="186.041"/>
	<path fill="none" stroke="#000000" stroke-width="3" stroke-linecap="square" stroke-linejoin="round" stroke-miterlimit="10" d="
		M129.766,240.727c0,0-13.461,26.56,0,34.122l13.436,7.563l6.445-16.07C149.647,266.342,144.129,240.637,129.766,240.727z"/>
	<path fill="none" stroke="#000000" stroke-width="8" stroke-miterlimit="10" d="M149.53,128.596"/>
	<path fill="none" stroke="#000000" stroke-width="8" stroke-miterlimit="10" d="M181.408,209.13"/>
	<path fill="none" stroke="#000000" stroke-width="8" stroke-miterlimit="10" d="M183.214,129.264"/>
	<path fill="none" stroke="#000000" stroke-width="8" stroke-miterlimit="10" d="M193.02,200.481"/>
	<path fill="none" stroke="#000000" stroke-width="8" stroke-miterlimit="10" d="M189.347,171.309"/>
	<path fill="none" stroke="#000000" stroke-width="4" stroke-miterlimit="10" d="M172.521,215.114
		c6.804,0.146,14.049,6.081,21.002,1.382c11.679-7.905,0.099-26.626-2.78-35.528c-6.358-19.659,22.493-37.025-12.201-24.381
		c-19.247,7.016-70.883,32.415-41.854,49.159C152.164,214.672,172.468,215.113,172.521,215.114z"/>
	<path fill="none" stroke="#000000" stroke-width="2" stroke-miterlimit="10" d="M175.456,173.561c0,0,19.761,27.974,12.732,36.838"
		/>
	<path fill="none" stroke="#000000" stroke-width="2" stroke-miterlimit="10" d="M159.971,178.913c0,0-18.582,8.455-20.647,18.814"
		/>
	<path fill="none" stroke="#000000" stroke-width="2" stroke-miterlimit="10" d="M164.804,197.727c0,0,2.053,6.75,0,12.672"/>
	<path fill="none" stroke="#000000" stroke-width="7" stroke-miterlimit="10" d="M314.163,269.226l40.282-21.325l10.715-5.673
		L246.666,18.667C246.666,18.667,216.667,126.734,314.163,269.226z"/>
</g>
</svg>
