<?xml version="1.0" encoding="utf-8"?>
<!-- Generator: Adobe Illustrator 16.0.3, SVG Export Plug-In . SVG Version: 6.00 Build 0)  -->
<!DOCTYPE svg PUBLIC "-//W3C//DTD SVG 1.1//EN" "http://www.w3.org/Graphics/SVG/1.1/DTD/svg11.dtd">
<svg version="1.1" id="Layer_1" xmlns="http://www.w3.org/2000/svg" xmlns:xlink="http://www.w3.org/1999/xlink" x="0px" y="0px"
	 width="728.963px" height="571.472px" viewBox="11.613 29.604 728.963 571.472"
	 enable-background="new 11.613 29.604 728.963 571.472" xml:space="preserve">
<g>
	<g>
		<path fill="none" stroke="#000000" stroke-width="4" stroke-miterlimit="10" d="M539.691,525.66c0,17.088-11.525,30.6-25.832,30.6
			H222.166c-14.306,0-25.831-13.909-25.831-30.6V230.787c0-17.088,11.525-30.6,25.831-30.6h291.693
			c10.729,0,19.473,7.551,23.446,18.281c1.192,3.576,1.986,7.948,1.986,12.319V525.66H539.691z"/>
		<path d="M386.69,265.758c0,0.795-0.396,1.192-0.396,1.987c0.396,7.55,0.794,14.704,1.191,22.254
			c0.396,7.55,0.795,15.499,1.191,23.05c0.397,4.77,0.397,9.537,0.795,14.703c-5.563,0-11.127,0-16.689,0c0-0.795,0-1.589,0-2.384
			c0-20.269,0-40.535,0-61.2c0-2.385,0-4.77,0-7.153c0-2.384-1.59-3.974-3.975-3.974c-2.384,0-3.974,1.192-4.371,3.577
			c0,0.795,0,1.59,0,1.987c0,22.254,0,44.111,0,66.366c0,0.795,0,1.59,0,2.384c-5.564,0-11.127,0-16.293,0c0-0.794,0-1.19,0-1.985
			c0.397-8.346,0.794-17.089,1.192-25.435c0.397-7.551,0.795-15.102,1.192-22.651c0.397-6.757,0.795-13.513,1.192-20.268
			c0-2.384-1.59-3.974-3.974-3.974c-2.384,0-3.974,1.59-4.372,3.577c-0.795,11.525-1.192,23.049-1.987,34.574
			c-0.397,6.357-0.795,12.717-1.192,19.074c-0.397,6.757-0.795,13.909-1.192,20.665c0,1.192,0.397,1.987,0.795,3.18
			c3.974,6.357,8.346,12.319,12.319,18.679c1.987,2.781,3.179,5.961,3.179,9.537c-0.397,16.294-0.794,32.983-1.192,49.277
			c-0.397,20.269-0.795,40.139-1.59,60.405c-0.397,10.332-0.397,20.269-0.794,30.601c0,7.152,3.974,13.512,10.729,15.499
			c11.127,3.575,22.255-4.372,21.856-16.294c-0.396-14.704-0.795-29.407-1.191-44.51c-0.795-31.395-1.59-63.188-2.386-94.582
			c0-3.575,0.796-6.756,2.782-9.538c4.371-5.961,8.347-12.318,12.319-18.678c0.795-1.191,1.192-2.781,1.192-4.371
			c-0.397-7.551-0.796-15.499-1.192-23.05c-0.397-10.332-1.192-20.268-1.59-30.6c0-1.192-0.397-2.385-0.794-3.577l0.396-0.397
			c-0.396-5.563-0.396-11.127-0.794-16.691c0-1.987-1.987-3.179-3.975-3.179c-1.988,0-3.975,1.192-3.975,2.782
			C385.896,259.002,386.294,262.182,386.69,265.758z"/>
		<path fill="none" stroke="#000000" stroke-miterlimit="10" d="M435.969,402.465c0,0.795,0,1.59,0,1.987
			c0,22.254,0,44.906,0,67.161c0,9.935,0,20.268,0,30.202c0,7.152,3.975,13.113,10.333,15.499
			c11.524,4.37,23.049-3.577,23.049-15.896c0-80.275,0-160.551,0-240.826c0-1.191,0-2.384,0-3.974c0-1.59-0.795-3.179-2.385-3.577
			c-1.19-0.397-2.781,0-4.371,0.397c-0.795,0.397-1.59,1.192-2.385,1.987c-9.537,7.948-17.485,17.089-23.844,27.421
			c-5.961,9.538-10.332,19.87-13.114,30.601c-2.385,8.743-3.974,17.485-3.974,26.626c0,19.076,0,38.15,0,57.227
			c0,3.18,1.589,4.77,4.769,4.77C427.623,402.465,431.598,402.465,435.969,402.465z"/>
		<path fill="none" stroke="#000000" stroke-miterlimit="10" d="M261.112,321.395c2.384,10.73,8.345,18.281,19.075,21.461
			c3.577,1.191,4.372,1.986,4.372,5.961c-0.397,12.717-0.397,25.434-0.795,38.149c-0.795,32.19-1.59,64.38-2.384,96.569h-0.397
			c0,6.357,0,12.318,0,18.678c0,5.166,3.577,8.743,8.345,8.743c4.769,0,7.948-3.577,7.948-8.743
			c-0.397-13.909-0.397-27.818-0.795-41.728c0-8.346-0.397-16.69-0.795-25.435c-0.397-9.537-0.397-19.473-0.397-29.01
			c-0.397-19.076-0.795-38.549-1.192-57.624c0-2.781,0.795-3.974,3.577-4.769c2.782-1.192,5.961-1.987,8.345-3.577
			c6.358-3.975,9.935-10.332,11.525-17.485c1.987-9.141,1.589-17.883-0.795-26.626c-2.384-10.333-6.358-19.87-13.909-27.421
			c-3.577-3.577-7.55-6.756-13.114-6.756c-5.563,0-9.538,2.781-13.512,6.357c-5.166,5.168-8.743,11.525-11.524,18.281
			C260.317,297.551,258.727,309.473,261.112,321.395"/>
		<path fill="none" stroke="#000000" stroke-width="7" stroke-linecap="round" stroke-linejoin="round" stroke-miterlimit="10" d="
			M466.966,253.438c1.59,0.397,2.385,1.987,2.385,3.577c0,1.192,0,2.383,0,3.973c0,80.275,0,160.551,0,240.827
			c0,12.717-11.523,20.665-23.049,15.896c-5.962-2.385-10.333-8.346-10.333-15.499c0-9.935,0-20.268,0-30.202
			c0-22.255,0-44.907,0-67.161c0-1.191,0-1.589,0-2.384c-4.371,0-7.947,0-11.922,0c-3.18,0-4.769-1.59-4.769-4.769
			c0-19.075,0-38.15,0-57.228c0-9.14,1.589-17.883,3.974-26.626c2.782-10.729,7.153-21.062,13.114-30.6
			c6.357-10.333,19.931-23.462,29.468-31.41"/>
		<path fill="none" stroke="#000000" stroke-width="7" stroke-miterlimit="10" d="M261.112,321.395
			c-2.782-12.318-0.795-24.24,3.577-35.766c2.782-6.756,5.961-13.113,11.524-18.279c3.577-3.578,7.948-6.358,13.512-6.358
			s9.538,2.782,13.114,6.756c7.551,7.948,11.525,17.088,13.909,27.42c2.384,8.743,2.782,17.884,0.795,26.626
			c-1.59,7.153-5.167,13.512-11.525,17.486c-2.384,1.589-5.563,2.78-8.345,3.576c-2.782,0.795-3.577,1.986-3.577,4.769
			c0.397,19.075,0.795,38.549,1.192,57.624c0.397,9.537,0.397,19.473,0.397,29.01c0.397,8.347,0.397,16.691,0.795,25.436
			c0.397,13.907,0.397,27.816,0.795,41.727c0,5.166-3.179,8.743-7.948,8.743s-8.345-3.577-8.345-8.743c0-6.357,0-12.319,0-18.678
			h0.397c0.794-32.189,1.589-64.379,2.384-96.568c0.397-12.717,0.397-25.435,0.795-38.15c0-3.975-0.795-4.77-4.372-5.961
			C269.457,339.676,263.496,332.125,261.112,321.395"/>
		
			<line fill="none" stroke="#000000" stroke-width="4" stroke-miterlimit="10" stroke-dasharray="5,5" x1="521.808" y1="172.766" x2="636.657" y2="104.811"/>
		<path fill="none" stroke="#000000" stroke-width="5" stroke-linecap="round" stroke-linejoin="round" stroke-miterlimit="10" d="
			M537.166,217.833l114.632-76.461c0,0,9.401,23.447,10.487,46.496c0.723,15.896-6.51,29.805-9.041,42.125
			c0,0,10.359,10.216-3.744,57.507c0,0,1.213,41.844-18.316,66.88c0,0,7.016,34.828-14.684,51.12l-75.334,25.667"/>
		<path fill="none" stroke="#000000" stroke-width="5" stroke-miterlimit="10" d="M589.235,367.891c0,0,23.868,5.563,43.396-13.512"
			/>
		<path fill="none" stroke="#000000" stroke-width="5" stroke-linecap="round" stroke-miterlimit="10" d="M589.598,248.67
			c0,0,39.055,17.088,64.008-25.036"/>
		<g>
			<g>
				<g>
					<g>
						<g>
							
								<line fill="none" stroke="#000000" stroke-width="4" stroke-miterlimit="10" stroke-dasharray="5,5" x1="520.5" y1="107.5" x2="615.5" y2="48.5"/>
						</g>
					</g>
				</g>
			</g>
		</g>
	</g>
	<path fill="none" stroke="#000000" stroke-width="5" stroke-linecap="round" stroke-miterlimit="10" d="M590.5,317.5
		c0,0,39,4,59-26"/>
	
		<line fill="none" stroke="#000000" stroke-width="4" stroke-miterlimit="10" stroke-dasharray="5,5" x1="98.755" y1="111.811" x2="213.604" y2="179.766"/>
	
		<line fill="none" stroke="#000000" stroke-width="4" stroke-miterlimit="10" stroke-dasharray="5,5" x1="118.228" y1="54.187" x2="215.833" y2="118.5"/>
	<path fill="none" stroke="#000000" stroke-width="5" stroke-linecap="round" stroke-linejoin="round" stroke-miterlimit="10" d="
		M195.167,439.833L115.602,413.5c-21.699-16.292-14.684-51.12-14.684-51.12c-19.529-25.036-18.316-66.88-18.316-66.88
		c-14.104-47.291-3.744-57.507-3.744-57.507c-2.531-12.32-9.764-26.229-9.041-42.125c1.085-23.049,10.487-46.496,10.487-46.496"/>
	<path fill="none" stroke="#000000" stroke-width="5" stroke-miterlimit="10" d="M80.304,149.372L196.602,226.5"/>
	<path fill="none" stroke="#000000" stroke-width="5" stroke-miterlimit="10" d="M99.47,362.379
		c19.528,19.075,43.396,13.512,43.396,13.512"/>
	<path fill="none" stroke="#000000" stroke-width="5" stroke-miterlimit="10" d="M78.497,231.634
		c24.953,42.124,64.008,25.036,64.008,25.036"/>
	<path fill="none" stroke="#000000" stroke-width="5" stroke-miterlimit="10" d="M141.602,325.5c0,0-39,4-59-26"/>
</g>
</svg>
