<?xml version="1.0" encoding="utf-8"?>
<!-- Generator: Adobe Illustrator 16.0.3, SVG Export Plug-In . SVG Version: 6.00 Build 0)  -->
<!DOCTYPE svg PUBLIC "-//W3C//DTD SVG 1.1//EN" "http://www.w3.org/Graphics/SVG/1.1/DTD/svg11.dtd">
<svg version="1.1" id="Layer_1" xmlns="http://www.w3.org/2000/svg" xmlns:xlink="http://www.w3.org/1999/xlink" x="0px" y="0px"
	 width="286px" height="381px" viewBox="27 61.5 286 381" enable-background="new 27 61.5 286 381" xml:space="preserve">
<g>
	<path fill="none" d="M178.682,266.933l-4.194-11.29l-3.953-12.035c0,0,1.417-4.063,3.003-1.532
		c0.077,0.122,0.155,0.261,0.232,0.415l4.792,13.524l0.12-2.729c0,0,2.636-0.869,3.474,0.495l0.599,0.993c0,0,0.121-0.496,0.6-0.621
		c0.48-0.124,2.636-0.62,3.235,0.372c0.6,0.993,0.6,0.993,0.6,0.993h2.636c0,0,0.12-1.365,1.079,0.373
		c0.958,1.737,3.235,11.042,3.235,11.042"/>
	<path fill="none" stroke="#000000" stroke-width="3" stroke-miterlimit="10" d="M116.38,202.043c0,0-0.959,22.821,10.777,33.743
		c5.543,5.158,12.171,7.971,19.221,9.437c9.268,1.926,19.262,1.522,28.476,1.046c4.418-0.228,8.435-1.187,12.694-2.291
		c0.011-0.002,12.462-3.233,18.931-22.829l3.114-17.371C209.594,203.78,163.585,233.557,116.38,202.043z"/>
	<path fill="none" stroke="#000000" stroke-width="2.1" stroke-miterlimit="10" d="M145.135,245.22v6.204
		c0,0,19.888,4.714,38.099-0.993l-0.238-5.459C182.996,244.972,165.743,248.942,145.135,245.22z"/>
	<path fill="none" stroke="#000000" stroke-width="2" stroke-miterlimit="10" d="M132.673,210.728
		c1.325-1.939,2.881-4.205,5.247-4.772c6.546-1.57,10.428,7.608,16.73,7.258c-0.706-0.01-1.397-0.198-2.06-0.435
		c2.21,0.636,5.051,1.104,7.325,0.627c2.294-0.482,4.465-1.75,6.848-0.925c1.523,0.528,3.009,1.317,4.488,1.969
		c-0.117-0.051,2.921-2.436,3.21-2.576c4.281-2.083,7.038,0.24,10.688,2.328"/>
	<path fill="none" stroke="#000000" stroke-width="2" stroke-miterlimit="10" d="M174.848,191.373l7.429-26.799
		c0,0,16.774,7.94,16.774,8.686c0,0.745-5.991,16.377-5.991,16.377s-6.23-5.955-8.626,1.985l0.239,3.97c0,0-2.397-3.97-6.23,2.729
		c0,0-5,2.38-0.523,7.704c4.478,5.324,0,0,0,0s4.536,6.21,6.873,4.828c1.677-0.992,1.677-1.365,1.677-1.365
		s-4.861-4.272,1.079-10.298c5.871-5.955,0,0,0,0s6.47-6.824,7.907-7.072c1.438-0.249,0.48-0.125,0.48-0.125l-2.397-2.357"/>
	<polyline fill="none" stroke="#000000" stroke-width="3" stroke-miterlimit="10" points="169.264,190.877 167.42,172.266 
		178.487,173.507 179.64,173.755 	"/>
	<path fill="none" stroke="#000000" stroke-width="3" stroke-miterlimit="10" d="M189.104,212.713c0,0-11.62-7.444,4.914-19.603
		c1.537-0.931,3.154-1.759,4.798-2.458c1.232-0.524,2.504-1.014,3.825-1.232c0.824-0.134,3.157,0.047,3.747,0.712
		c0.33,0.373,0.688,1.489,0.809,4.467l-1.198,11.663"/>
	<path fill="none" stroke="#000000" stroke-width="3" stroke-miterlimit="10" d="M199.17,206.758
		c-2.463,2.584-4.604,1.912-6.11,0.372c-1.506-1.541-3.183-4.984-0.718-7.569c2.464-2.584,8.078-4.394,9.584-2.853
		C203.433,198.249,201.634,204.173,199.17,206.758z"/>
	<g>
		<g>
			<line fill="none" stroke="#000000" stroke-miterlimit="10" x1="194.258" y1="207.626" x2="194.497" y2="207.415"/>
			
				<line fill="none" stroke="#000000" stroke-miterlimit="10" stroke-dasharray="4.1511,5.1888" x1="195.995" y1="206.094" x2="199.24" y2="203.232"/>
			<line fill="none" stroke="#000000" stroke-miterlimit="10" x1="200.487" y1="202.131" x2="200.728" y2="201.919"/>
		</g>
	</g>
	<g>
		<g>
			<line fill="none" stroke="#000000" stroke-miterlimit="10" x1="193.18" y1="206.881" x2="193.42" y2="206.67"/>
			
				<line fill="none" stroke="#000000" stroke-miterlimit="10" stroke-dasharray="4.1506,5.1882" x1="194.917" y1="205.349" x2="198.161" y2="202.487"/>
			<line fill="none" stroke="#000000" stroke-miterlimit="10" x1="199.408" y1="201.387" x2="199.649" y2="201.175"/>
		</g>
	</g>
	<g>
		<g>
			<line fill="none" stroke="#000000" stroke-miterlimit="10" x1="194.976" y1="203.408" x2="195.218" y2="203.196"/>
			
				<line fill="none" stroke="#000000" stroke-miterlimit="10" stroke-dasharray="4.1508,5.1885" x1="196.715" y1="201.875" x2="199.957" y2="199.013"/>
			<line fill="none" stroke="#000000" stroke-miterlimit="10" x1="201.205" y1="197.913" x2="201.445" y2="197.701"/>
		</g>
	</g>
	<g>
		<g>
			<line fill="none" stroke="#000000" stroke-miterlimit="10" x1="193.18" y1="203.036" x2="193.42" y2="202.824"/>
			
				<line fill="none" stroke="#000000" stroke-miterlimit="10" stroke-dasharray="4.1507,5.1884" x1="194.917" y1="201.503" x2="198.161" y2="198.642"/>
			<line fill="none" stroke="#000000" stroke-miterlimit="10" x1="199.408" y1="197.541" x2="199.649" y2="197.329"/>
		</g>
	</g>
	<g>
		<g>
			<line fill="none" stroke="#000000" stroke-miterlimit="10" x1="191.142" y1="202.291" x2="191.382" y2="202.079"/>
			
				<line fill="none" stroke="#000000" stroke-miterlimit="10" stroke-dasharray="4.1511,5.1888" x1="192.88" y1="200.759" x2="196.123" y2="197.896"/>
			<line fill="none" stroke="#000000" stroke-miterlimit="10" x1="197.372" y1="196.797" x2="197.611" y2="196.584"/>
		</g>
	</g>
	
		<line fill="none" stroke="#000000" stroke-miterlimit="10" stroke-dasharray="1,3,4,5" x1="191.038" y1="176.994" x2="196.429" y2="172.342"/>
	
		<line fill="none" stroke="#000000" stroke-miterlimit="10" stroke-dasharray="1,3,4,5" x1="190.678" y1="179.228" x2="196.789" y2="173.086"/>
	
		<line fill="none" stroke="#000000" stroke-miterlimit="10" stroke-dasharray="1,3,4,5" x1="191.757" y1="180.53" x2="198.047" y2="174.388"/>
	
		<line fill="none" stroke="#000000" stroke-miterlimit="10" stroke-dasharray="1,3,4,5" x1="186.545" y1="186.485" x2="198.047" y2="176.436"/>
	
		<line fill="none" stroke="#000000" stroke-miterlimit="10" stroke-dasharray="1,3,4,5" x1="189.42" y1="186.485" x2="196.429" y2="180.53"/>
	
		<line fill="none" stroke="#000000" stroke-miterlimit="10" stroke-dasharray="1,3,4,5" x1="190.858" y1="186.857" x2="195.711" y2="183.321"/>
	<line fill="none" stroke="#000000" stroke-width="2" stroke-miterlimit="10" x1="191.936" y1="188.16" x2="194.812" y2="185.926"/>
	
		<line fill="none" stroke="#000000" stroke-width="2" stroke-miterlimit="10" x1="136.227" y1="207.142" x2="131.194" y2="199.698"/>
	
		<line fill="none" stroke="#000000" stroke-width="2" stroke-miterlimit="10" x1="131.733" y1="198.768" x2="145.212" y2="207.142"/>
	
		<line fill="none" stroke="#000000" stroke-width="2" stroke-miterlimit="10" x1="133.711" y1="197.837" x2="145.751" y2="204.164"/>
	
		<line fill="none" stroke="#000000" stroke-width="2" stroke-miterlimit="10" x1="137.843" y1="197.092" x2="148.986" y2="202.676"/>
	<path fill="none" stroke="#000000" stroke-width="2" stroke-miterlimit="10" d="M140.181,196.348c0,0,7.907,3.35,8.625,4.095"/>
	
		<line fill="none" stroke="#000000" stroke-width="2" stroke-miterlimit="10" x1="130.477" y1="199.884" x2="132.093" y2="210.678"/>
	<line fill="none" stroke="#000000" stroke-width="2" stroke-miterlimit="10" x1="129.039" y1="200.07" x2="128.499" y2="208.259"/>
	<path fill="none" stroke="#000000" stroke-width="3" stroke-linecap="round" stroke-linejoin="round" stroke-miterlimit="10" d="
		M144.853,208.444l5.93-8.375c0.477-0.672-2.223-2.821-2.653-3.051c-2.866-1.526-6.249-1.304-9.318-0.691
		c-2.861,0.571-6.496,1.232-8.827,3.154c-2.139,1.761-3.525,4.958-4.261,7.648c0.448-1.637,1.81-3.654,2.706-5.085
		c0.982-1.57,2.271-2.95,3.804-3.95c2.931-1.911,7.228-2.465,10.643-2.12c-0.561-2.674-4.207-3.448-6.365-3.847
		c-4.985-0.923-9.412-0.628-13.942,1.8c-0.594,0.273-1.5,1.521-2.412,2.993c-1.573,2.543-3.16,5.753-3.16,5.753"/>
	<path fill="none" stroke="#000000" stroke-width="2" stroke-miterlimit="10" d="M122.029,204.909
		c1.617,2.233-1.257-8.002-1.257-8.002"/>
	
		<line fill="none" stroke="#000000" stroke-width="2" stroke-miterlimit="10" x1="122.389" y1="195.232" x2="127.061" y2="204.164"/>
	<line fill="none" stroke="#000000" stroke-width="2" stroke-miterlimit="10" x1="124.366" y1="193.929" x2="129.039" y2="200.07"/>
	
		<line fill="none" stroke="#000000" stroke-width="2" stroke-miterlimit="10" x1="127.241" y1="193.185" x2="132.812" y2="197.464"/>
	<path fill="none" stroke="#000000" stroke-width="2" stroke-miterlimit="10" d="M129.937,193.485c0,0,5.452-0.728,7.073,1.213
		l0.295,1.091"/>
	<path fill="none" stroke="#000000" stroke-width="2" stroke-miterlimit="10" d="M143.954,195.79c0,0-0.718-3.722,9.884-4.653
		c0,0,3.414-6.886,6.29-3.349c0,0,5.571,0.93,4.672,5.21c0,0-1.618,6.514,0,9.491c0,0-0.18,3.722,4.494,3.536
		c4.67-0.187,0.717-3.722,4.67-0.187c3.956,3.536,2.338,4.28,2.338,4.28l-1.078,1.489"/>
	<path fill="none" stroke="#000000" stroke-width="2" stroke-miterlimit="10" d="M145.931,196.721c0,0,4.672-1.489,6.649-1.675
		c0,0,3.774-4.652,4.853-3.536c0,0,3.594-2.605,3.954,2.233c0,0-1.978,6.7,0.718,9.864c0,0-0.898,4.094,5.392,5.024
		c0,0,4.673-1.862,5.571-0.187l-1.258,6.327"/>
	<path fill="none" stroke="#000000" stroke-width="4" stroke-miterlimit="10" d="M135.867,211.794c0,0,3.235-3.908,4.492-1.675
		l3.235,4.094"/>
	<path fill="none" stroke="#000000" stroke-width="4" stroke-miterlimit="10" d="M146.47,214.399l1.438-1.302
		c0,0,3.414-0.745,4.133,1.116c0,0,4.493-0.558,7.549,0.373c0,0,2.875-1.303,4.672-0.744l4.133,1.861"/>
	<path fill="none" stroke="#000000" stroke-width="4" stroke-miterlimit="10" d="M174.684,215.33c0,0,1.258-2.419,2.157-2.419
		l3.236,1.302"/>
	<path fill="none" stroke="#000000" stroke-width="2" stroke-miterlimit="10" d="M164.44,190.021c0,0,3.594-2.791,4.492-0.372
		c0,0-0.717,3.164,0,4.838c0,0,3.056-3.536,4.674-0.372c0,0,2.696,2.047,1.617,3.722c0,0-0.719,0.558-0.898,2.419
		c0,0,1.257-1.489,1.437,1.675c0.18,3.165,0.18,0.745,0.18,0.745s0.18,1.489,0,2.42c-0.18,0.93,0.899-1.118,1.977,0.93
		c0,0-0.18,1.488,0.36,3.35"/>
	<path fill="none" stroke="#000000" stroke-width="4" stroke-miterlimit="10" d="M176.303,211.422"/>
	<path fill="none" stroke="#000000" stroke-width="2" stroke-miterlimit="10" d="M164.98,194.673c0,0,2.335-2.233,3.773,2.233
		c0,0,0.359,4.466,1.438,4.093c1.078-0.372,1.078-1.674,1.078-1.674l0.899-0.744c0,0-0.361,2.419,0.179,3.908
		c0.54,1.488,1.258,1.861,2.876,4.094"/>
	<polygon fill="none" stroke="#000000" stroke-width="2.2" stroke-miterlimit="10" points="221.948,245.664 221.245,245.843 
		186.186,254.783 148.447,265.019 148.986,266.321 160.847,263.715 222.487,249.014 	"/>
	<path fill="none" stroke="#000000" stroke-width="2.2" stroke-miterlimit="10" d="M125.804,271.717
		c1.796,0.188,41.153-4.279,41.153-4.279l38.459-4.096l-0.36,4.281l-44.568,3.163l-32.527,2.607h-3.416L125.804,271.717z"/>
	<path fill="none" stroke="#000000" stroke-miterlimit="10" d="M150.244,199.14c0.571-1.116,4.092-5.055,4.72-1.784
		c0.284,1.475-0.767,2.752-0.135,4.264c0.62,1.48,2.134,2.462,3.671,1.855c0.762-0.301,2.576-1.558,3.301-0.56
		c0.774,1.07-0.907,3.212-0.96,4.356c-0.07,1.458,1.194,4.024,2.935,3.015c0.864-0.5,2.488-2.412,2.822-0.167"/>
	<path fill="none" stroke="#000000" stroke-width="2" stroke-miterlimit="10" d="M148.088,211.05c0,0-3.055-6.885,0-5.583
		c3.054,1.303,1.438,0.373,2.695-0.372c1.257-0.745,3.774-1.675,4.313,0.931c0.538,2.605,0.18,4.28,1.796,3.536
		c1.618-0.744,0.181,3.908,1.618,1.675"/>
	<path d="M206.838,190.381c0,0,3.954,3.102,3.595,5.831l-0.359,7.32l-3.835,2.109C206.238,205.641,207.197,193.482,206.838,190.381z
		"/>
	<path fill="none" stroke="#000000" stroke-width="2" stroke-miterlimit="10" d="M168.617,191.621c0,0,3.955-2.232,6.111-0.993
		c0,0,0.119,2.233,2.276,4.218c2.156,1.985,0.479,0.125,0.479,0.125l0.958,3.35"/>
	<ellipse fill="none" stroke="#000000" stroke-width="3" stroke-miterlimit="10" cx="181.737" cy="203.532" rx="1.139" ry="1.241"/>
	<ellipse fill="none" stroke="#000000" stroke-width="3" stroke-miterlimit="10" cx="189.405" cy="193.792" rx="0.899" ry="0.931"/>
</g>
<path fill="none" stroke="#000000" stroke-width="4" stroke-miterlimit="10" d="M80.494,280.035c0,0-48.048-19.677-41.307-75.983
	l0.337-6.962l56.286,6.962L80.494,280.035z"/>
<path fill="none" stroke="#000000" stroke-width="4" stroke-linecap="round" stroke-linejoin="round" stroke-miterlimit="10" d="
	M43.905,196.484c0,0,19.737-27.246,29.174-28.456c0,0,25.615-0.605,31.008,6.054"/>
<path fill="none" stroke="#000000" stroke-width="4" stroke-linecap="round" stroke-linejoin="round" stroke-miterlimit="10" d="
	M67.835,198.3c0,0,7.267-16.953,11.311-18.164s14.83-11.503,27.637-5.449"/>
<line fill="none" stroke="#000000" stroke-width="2" stroke-linecap="round" stroke-linejoin="round" stroke-miterlimit="10" x1="80.494" y1="188.007" x2="86.709" y2="203.144"/>
<line fill="none" stroke="#000000" stroke-width="2" stroke-linecap="round" stroke-linejoin="round" stroke-miterlimit="10" x1="87.909" y1="186.796" x2="96.672" y2="196.484"/>
<line fill="none" stroke="#000000" stroke-width="2" stroke-linecap="round" stroke-linejoin="round" stroke-miterlimit="10" x1="93.302" y1="177.715" x2="103.413" y2="188.007"/>
<line fill="none" stroke="#000000" stroke-width="2" stroke-linecap="round" stroke-linejoin="round" stroke-miterlimit="10" x1="76.449" y1="171.661" x2="75.775" y2="180.742"/>
<line fill="none" stroke="#000000" stroke-width="2" stroke-linecap="round" stroke-linejoin="round" stroke-miterlimit="10" x1="71.731" y1="174.688" x2="69.708" y2="189.218"/>
<line fill="none" stroke="#000000" stroke-width="2" stroke-linecap="round" stroke-linejoin="round" stroke-miterlimit="10" x1="66.338" y1="176.504" x2="63.642" y2="194.667"/>
<line fill="none" stroke="#000000" stroke-width="2" stroke-linecap="round" stroke-linejoin="round" stroke-miterlimit="10" x1="60.946" y1="178.32" x2="54.879" y2="195.878"/>
<path fill="none" stroke="#000000" stroke-width="3" stroke-linecap="round" stroke-linejoin="round" stroke-miterlimit="10" d="
	M78.957,168.028c0,0,10.383-16.739,29.997-16.042"/>
<path fill="none" stroke="#000000" stroke-width="3" stroke-linecap="round" stroke-linejoin="round" stroke-miterlimit="10" d="
	M91.953,166.817c0,0,11.459-10.292,16.178-7.871"/>
<polyline fill="none" stroke="#000000" stroke-width="3" stroke-linecap="round" stroke-linejoin="round" stroke-miterlimit="10" points="
	180.743,142.902 168.125,110.202 204.524,106.575 196.247,141.721 "/>
<line fill="none" stroke="#000000" stroke-width="2" stroke-miterlimit="10" stroke-dasharray="1,3,4,5" x1="235.034" y1="104.836" x2="248.188" y2="92.168"/>
<line fill="none" stroke="#000000" stroke-width="2" stroke-miterlimit="10" stroke-dasharray="1,3,4,5" x1="234.157" y1="110.917" x2="249.064" y2="94.195"/>
<line fill="none" stroke="#000000" stroke-width="2" stroke-miterlimit="10" stroke-dasharray="1,3,4,5" x1="236.789" y1="114.464" x2="252.135" y2="97.742"/>
<line fill="none" stroke="#000000" stroke-width="2" stroke-miterlimit="10" stroke-dasharray="1,3,4,5" x1="224.072" y1="130.679" x2="252.135" y2="103.316"/>
<line fill="none" stroke="#000000" stroke-width="2" stroke-miterlimit="10" stroke-dasharray="1,3,4,5" x1="231.088" y1="130.679" x2="248.188" y2="114.464"/>
<line fill="none" stroke="#000000" stroke-width="2" stroke-miterlimit="10" stroke-dasharray="1,3,4,5" x1="234.597" y1="131.692" x2="246.436" y2="122.064"/>
<path fill="none" stroke="#000000" stroke-width="5" stroke-miterlimit="10" d="M227.592,173.174c0,0,20.04-21.85,24.94-22.401
	c4.9-0.551,1.348,0.908,1.348,0.908l-5.885-4.679"/>
<path fill="none" stroke="#000000" stroke-width="5" stroke-miterlimit="10" d="M194.898,142.902L212.414,76
	c0,0,43.31,21.153,43.31,23.135c0,1.983-9.782,48.307-9.782,48.307s-18.532-26.299-24.719-5.146l4.495,5.449"/>
<path fill="none" stroke="#000000" stroke-width="4" stroke-miterlimit="10" d="M243.77,156.539
	c7.233-3.901,16.977-8.87,25.891-8.897c10.861-0.033,11.101,5.841,11.445,13.527l-1.309,33.197"/>
<path fill="none" stroke="#000000" stroke-width="4" stroke-miterlimit="10" d="M262.379,185.943
	c-6.68,5.975-12.48,4.423-16.564,0.861c-4.084-3.563-8.628-11.524-1.949-17.5c6.68-5.975,21.897-10.16,25.984-6.598
	C273.934,166.269,269.059,179.968,262.379,185.943z"/>
<path d="M280.782,153.63c0,0,10.718,8.279,9.743,15.565l0.069,24.366l-11.437,0.803C279.158,194.365,281.757,161.91,280.782,153.63z
	"/>
<path fill="none" stroke="#000000" stroke-width="4" stroke-linecap="round" stroke-linejoin="round" stroke-miterlimit="10" d="
	M238.377,201.63c0,0,51.599-10.759,56.621-9.384c-1.01,5.751-2.723,17.604-3.369,21.19c-2.229,12.351-7.564,24.269-14.155,35.116
	c-5.577,9.179-13.803,17.885-22.89,24.736c-4.19,3.159-10.656,5.536-16.207,5.536"/>
<g>
	<path fill="none" stroke="#000000" stroke-width="2" stroke-miterlimit="10" d="M135.769,341.992l24.042-0.201h-43.142
		c-0.156,0-0.31-0.014-0.464-0.021C120.608,342.793,126.878,343.063,135.769,341.992z"/>
	<path fill="none" stroke="#000000" stroke-width="3" stroke-miterlimit="10" d="M227.367,255.212l-0.823-16.136
		c0-21.63,0-43.26,0-64.89c0-6.224,0-12.446,0-18.669c0-1.683,0-3.365,0-5.047c0-4.012-3.622-7.266-8.09-7.266H116.669
		c-4.467,0-8.089,3.253-8.089,7.266v184.056c0,2.191,1.085,4.151,2.794,5.483c1.284,0.703,2.874,1.306,4.831,1.761
		c0.154,0.009,0.308,0.021,0.464,0.021h43.142l24.042-0.202l-0.189,0.202h34.791c4.468,0,8.09-3.254,8.09-7.266v-38.868v-41.252
		C226.12,254.167,227.367,255.212,227.367,255.212z M222.499,318.985h-109.2V153.901h109.2V318.985z"/>
	
		<rect x="113.299" y="153.901" fill="none" stroke="#000000" stroke-width="2" stroke-miterlimit="10" width="109.2" height="165.085"/>
	<path fill="none" stroke="#000000" stroke-width="2" stroke-miterlimit="10" d="M133.558,341.488
		c-8.891,1.071-7.393,1.326-11.796,0.303c-1.843-0.094-9.077-0.761-10.387-1.782c-4.105-5.786-1.971-10.73-1.971-10.73
		l-2.396-121.695l-1.797-3.633c-3.596-6.055-9.438,0-9.438,0l-2.479,13.284l-0.472,2.53c0.581-0.204,4.403-1.655,5.647-4.916
		c2.973-7.788,1.797-12.109,1.797-12.109s1.175,4.321-1.797,12.109c-1.245,3.26-5.066,4.712-5.647,4.916l-9.631,51.593
		c-2.697,6.458-5.843,82.34-5.843,82.34l-38.646,70.636l93.023-1.614l8.987-35.115l42.953-45.813h-23.853L133.558,341.488z"/>
	<path fill="none" stroke="#000000" stroke-width="2" stroke-miterlimit="10" d="M111.374,340.009
		c1.31,1.022,2.987,1.666,4.831,1.761C114.248,341.314,112.658,340.712,111.374,340.009z"/>
	<polygon fill="none" stroke="#000000" stroke-width="2" stroke-miterlimit="10" points="159.811,341.791 183.664,341.791 
		183.853,341.589 	"/>
	<path fill="none" stroke="#000000" stroke-width="2" stroke-miterlimit="10" d="M234.977,255.878
		c0.336-0.094,0.672-0.215,1.004-0.363c4.759-2.119,10.111-3.33,10.111-5.752c0-2.421-16.951-20.282-16.951-20.282l-2.081-1.816
		l-0.516,11.412l1.048,15.53C229.029,255.41,231.52,256.855,234.977,255.878z"/>
	<path fill="none" stroke="#000000" stroke-width="2" stroke-miterlimit="10" d="M226.544,254.406v-15.33l0.599,15.329
		C227.143,254.405,226.12,254.167,226.544,254.406z"/>
	<path fill="none" stroke="#000000" stroke-width="2" stroke-miterlimit="10" d="M226.692,189.017l-0.148,7.974v-6.78
		C226.389,190.341,226.835,188.847,226.692,189.017z"/>
	<path fill="none" stroke="#000000" stroke-width="2" stroke-miterlimit="10" d="M227.388,208.896c0,0,13.248-5.565,11.633-12.675
		c0,0-8.395-9.461-12.477-6.011v6.78L227.388,208.896z"/>
</g>
<path fill="none" stroke="#000000" stroke-width="2" stroke-miterlimit="10" d="M227.134,299.727c0,0,3.823,6.155,5.851,7.554
	c7.494,1.001,6.287-6.103,6.208-13.982c-0.124-12.213,0.145-16.274-7.784-23.509l-4.05-4.756l0.009,34.983"/>
<ellipse fill="none" stroke="#000000" stroke-width="2" stroke-miterlimit="10" cx="238.377" cy="151.681" rx="4.128" ry="3.633"/>
<line fill="none" stroke="#000000" stroke-width="2" stroke-miterlimit="10" stroke-dasharray="1,3,4,5" x1="240.398" y1="175.293" x2="251.858" y2="165.606"/>
<line fill="none" stroke="#000000" stroke-width="2" stroke-miterlimit="10" stroke-dasharray="1,3,4,5" x1="244.443" y1="182.559" x2="261.295" y2="166.817"/>
<line fill="none" stroke="#000000" stroke-width="2" stroke-miterlimit="10" stroke-dasharray="1,3,4,5" x1="253.206" y1="184.375" x2="266.688" y2="172.872"/>
<line fill="none" stroke="#000000" stroke-width="2" stroke-miterlimit="10" stroke-dasharray="1,3,4,5" x1="252.532" y1="180.742" x2="270.732" y2="165.606"/>
<line fill="none" stroke="#000000" stroke-width="2" stroke-miterlimit="10" stroke-dasharray="1,3,4,5" x1="243.77" y1="176.504" x2="256.577" y2="166.817"/>
<line fill="none" stroke="#000000" stroke-width="4" stroke-linecap="round" stroke-linejoin="round" stroke-miterlimit="10" x1="105.583" y1="204.354" x2="108.279" y2="204.052"/>
</svg>
