<?xml version="1.0" encoding="utf-8"?>
<!-- Generator: Adobe Illustrator 22.1.0, SVG Export Plug-In . SVG Version: 6.00 Build 0)  -->
<svg version="1.1" id="Layer_1" xmlns="http://www.w3.org/2000/svg" xmlns:xlink="http://www.w3.org/1999/xlink" x="0px" y="0px"
	 viewBox="0 0 514.7 438.7" style="enable-background:new 0 0 514.7 438.7;" xml:space="preserve">
<style type="text/css">
	.st0{fill:none;stroke:#000000;stroke-width:4;stroke-miterlimit:10;}
	.st1{fill:none;stroke:#000000;stroke-width:4;stroke-linejoin:round;stroke-miterlimit:10;}
	.st2{fill:none;stroke:#000000;stroke-width:6;stroke-miterlimit:10;}
	.st3{fill:none;stroke:#000000;stroke-width:5;stroke-miterlimit:10;}
	.st4{fill:none;stroke:#000000;stroke-width:4.7554;stroke-miterlimit:10;}
	.st5{fill:none;stroke:#000000;stroke-width:3;stroke-miterlimit:10;}
	.st6{fill:none;stroke:#000000;stroke-width:3;stroke-linecap:square;stroke-linejoin:round;stroke-miterlimit:10;}
	.st7{fill:none;stroke:#000000;stroke-width:4;stroke-linecap:round;stroke-linejoin:round;stroke-miterlimit:10;}
</style>
<path d="M138.3,201.7c0,0,0.6,15.6,12.4,20.5c0,0,13,3.1,21.1-18.7l-31.7-1.5"/>
<path class="st0" d="M167.7,95.7c0,6.6-5.4,12-12,12h-122c-6.6,0-12-5.4-12-12v-72c0-6.6,5.4-12,12-12h122c6.6,0,12,5.4,12,12V95.7z
	"/>
<path class="st1" d="M495.7,96.5c0,6.4-4.1,11.6-10.5,11.6h-132c-6.3,0-11.5-5.2-11.5-11.6V24.8c0-6.4,5.1-11.6,11.5-11.6h131
	c6.3,0,11.5,5.2,11.5,11.6L495.7,96.5L495.7,96.5z"/>
<path class="st0" d="M498.7,419.7c0,6.6-5.5,12-12.3,12H34c-6.8,0-12.3-5.4-12.3-12v-170c0-6.6,5.5-12,12.3-12h452.3
	c6.8,0,12.3,5.4,12.3,12V419.7z"/>
<rect x="33.7" y="136.7" width="129" height="18"/>
<rect x="46.7" y="137.7" width="8" height="65"/>
<path class="st2" d="M58.7,211.7c0,5.5-4.9,10-11,10s-11-4.5-11-10s7.9-10,14-10S58.7,206.1,58.7,211.7z"/>
<rect x="103.7" y="139.7" width="8" height="65"/>
<rect x="138.9" y="139.7" width="8" height="65"/>
<path class="st2" d="M117.7,211.7c0,5.5-4.9,10-11,10s-11-4.5-11-10s7.9-10,14-10S117.7,206.1,117.7,211.7z"/>
<rect x="74.7" y="138.7" width="8" height="65"/>
<path class="st2" d="M86.7,210.7c0,5.5-4.9,10-11,10s-11-4.5-11-10s7.9-10,14-10S86.7,205.1,86.7,210.7z"/>
<line class="st3" x1="187.7" y1="238.7" x2="187.7" y2="431.7"/>
<line class="st3" x1="21.7" y1="330.7" x2="187.7" y2="330.7"/>
<path class="st4" d="M362.1,399.7c0,6.6-4.9,12-10.9,12H212.9c-6,0-10.9-5.4-10.9-12v-97c0-6.6,4.9-12,10.9-12h138.4
	c6,0,10.9,5.4,10.9,12V399.7z"/>
<rect x="204.7" y="258.3" class="st3" width="22" height="15"/>
<line class="st3" x1="437.7" y1="319.7" x2="437.7" y2="431.7"/>
<polyline class="st3" points="498.7,317 376.7,317 376.7,238.7 376.7,431.7 "/>
<line class="st3" x1="418.7" y1="272" x2="447.7" y2="272"/>
<line class="st3" x1="86.7" y1="277.8" x2="116.3" y2="277.8"/>
<line class="st3" x1="86.7" y1="403" x2="116.3" y2="403"/>
<rect x="336.7" y="258.3" class="st3" width="22" height="15"/>
<rect x="293.7" y="258.3" class="st3" width="22" height="15"/>
<rect x="244.7" y="258.3" class="st3" width="22" height="15"/>
<path class="st3" d="M262.3,237.7v-27c4.5-2.4,40.9-17.3,66.7,0v9.9v18.1"/>
<line class="st3" x1="262.3" y1="220.7" x2="251.7" y2="220.6"/>
<line class="st3" x1="329" y1="220.6" x2="341.7" y2="220.6"/>
<rect x="293.7" y="192.3" width="6.7" height="11.3"/>
<line class="st0" x1="487.7" y1="59.7" x2="487.7" y2="80.3"/>
<line class="st0" x1="160" y1="62" x2="160" y2="82.7"/>
<path class="st5" d="M155.1,195.7c9.3,0,16.8,2.7,16.8,6s-7.5,6-16.8,6s-15.3-3.1-15.3-6.4S145.8,195.7,155.1,195.7z"/>
<line class="st3" x1="419.2" y1="361.7" x2="419.2" y2="379.7"/>
<line class="st3" x1="452.7" y1="361.7" x2="452.7" y2="379.7"/>
<polyline class="st3" points="466.7,209.7 480.7,209.7 480.7,235.7 "/>
<path class="st3" d="M460.7,173.2c0,0,4.3-4.5,9.7-5.5c3.3-0.6,6.9,0,10.3,3.5v42.7"/>
<polygon class="st6" points="447.7,173.2 458.2,170.2 463.2,176.7 460.7,185.7 "/>
<path class="st7" d="M326.1,102.7c0.9-26.4-0.5-51.8-0.9-78.2c-0.1-6.3-0.4-12-6.9-14.3c-6-2.1-101.9-1.7-107.5-1.5
	c-6.3,0.3-14.1-0.6-20.2,1.5c-6.6,2.3-6.9,8-6.9,14.3c-0.4,26.4-1.8,51.8-0.9,78.2L165,129h89h0.8h89L326.1,102.7z"/>
</svg>
