<?xml version="1.0" encoding="utf-8"?>
<!-- Generator: Adobe Illustrator 14.0.0, SVG Export Plug-In . SVG Version: 6.00 Build 43363)  -->
<!DOCTYPE svg PUBLIC "-//W3C//DTD SVG 1.1//EN" "http://www.w3.org/Graphics/SVG/1.1/DTD/svg11.dtd">
<svg version="1.1" id="Layer_1" xmlns="http://www.w3.org/2000/svg" xmlns:xlink="http://www.w3.org/1999/xlink" x="0px" y="0px"
	 width="600px" height="800px" viewBox="0 0 600 800" enable-background="new 0 0 600 800" xml:space="preserve">
<polygon fill="#255F2F" points="225.206,421.234 224.938,420.002 224.925,419.945 223.925,420.161 223.531,418.329 228.334,417.289 
	228.537,418.227 229.679,417.977 229.736,417.964 229.084,414.948 229.07,414.891 227.925,415.139 227.869,415.15 228.044,415.958 
	223.25,416.996 223.089,416.246 223.076,416.188 221.932,416.438 221.873,416.452 223.001,421.65 223.015,421.708 225.148,421.247 
	"/>
<g>
	<defs>
		<rect id="SVGID_1_" x="192.354" y="292.373" width="216" height="216"/>
	</defs>
	<clipPath id="SVGID_2_">
		<use xlink:href="#SVGID_1_"  overflow="visible"/>
	</clipPath>
	<path clip-path="url(#SVGID_2_)" fill="#255F2F" d="M232.019,425.497c-0.351-1.016-1.035-1.812-1.933-2.237
		c-0.884-0.424-1.922-0.465-2.918-0.123c-2.091,0.721-3.096,2.736-2.391,4.791c0.351,1.015,1.037,1.81,1.934,2.237
		c0.492,0.234,1.026,0.351,1.576,0.351c0.443,0,0.896-0.075,1.341-0.229C231.719,429.566,232.724,427.553,232.019,425.497
		 M230.68,427.727c-0.297,0.559-0.834,0.996-1.509,1.228c-0.678,0.233-1.373,0.222-1.952-0.037c-0.57-0.26-1.008-0.745-1.222-1.37
		c-0.218-0.633-0.174-1.287,0.121-1.848c0.296-0.562,0.833-0.997,1.51-1.23c0.322-0.111,0.641-0.164,0.949-0.164
		c1.015,0,1.884,0.584,2.227,1.586C231.021,426.516,230.977,427.166,230.68,427.727"/>
	<path clip-path="url(#SVGID_2_)" fill="#255F2F" d="M231.269,439.529l0.425-1.172l0.021-0.06l-0.06-0.016
		c-0.812-0.243-1.401-0.72-1.742-1.414c-0.32-0.65-0.365-1.323-0.133-1.949c0.224-0.601,0.694-1.103,1.324-1.413
		c1.317-0.646,2.723-0.195,3.345,1.064c0.308,0.63,0.303,1.041,0.276,1.222c-0.107,0.009-0.234,0.045-0.348,0.099
		c-0.222,0.111-0.375,0.284-0.438,0.498c-0.062,0.211-0.035,0.446,0.08,0.678c0.218,0.441,0.73,0.588,1.229,0.348
		c0.783-0.387,1.142-1.787,0.359-3.375c-0.973-1.98-3.182-2.75-5.135-1.79c-2.016,0.993-2.717,3.125-1.706,5.181
		c0.507,1.026,1.401,1.787,2.451,2.084L231.269,439.529z"/>
	<path clip-path="url(#SVGID_2_)" fill="#255F2F" d="M238.912,442.438l0.383,0.6l0.031,0.05l0.979-0.628l0.051-0.029l-2.243-3.504
		l-0.034-0.051l-0.976,0.626l-0.05,0.034l0.414,0.648l-5.096,1.164l-0.314-0.494l-0.033-0.051l-0.986,0.633l-0.049,0.031
		l1.533,2.398l0.033,0.05l0.978-0.626l0.049-0.033l-0.463-0.723l1.103-0.27l1.416,2.215l-0.705,0.889l-0.408-0.637l-0.031-0.049
		l-0.978,0.625l-0.051,0.031l1.536,2.396l0.032,0.052l0.985-0.634l0.051-0.03l-0.348-0.545L238.912,442.438z M235.398,441.966
		l2.71-0.63l-1.707,2.198L235.398,441.966z"/>
	<polygon clip-path="url(#SVGID_2_)" fill="#255F2F" points="241.335,445.921 241.857,446.562 238.053,449.667 237.531,449.025 
		236.576,449.805 239.948,453.934 239.985,453.979 241.726,452.56 240.891,451.536 240.095,452.185 238.908,450.732 242.72,447.619 
		243.327,448.361 244.281,447.582 242.289,445.141 	"/>
	<polygon clip-path="url(#SVGID_2_)" fill="#255F2F" points="254.41,459.186 255.963,460.39 255.368,461.154 256.401,461.957 
		257.704,460.275 257.742,460.229 253.477,456.92 253.432,456.884 252.679,457.854 253.329,458.36 250.323,462.234 249.67,461.729 
		248.917,462.701 251.355,464.591 251.401,464.627 252.121,463.703 252.157,463.656 251.398,463.07 252.487,461.664 
		254.131,462.939 254.176,462.978 254.901,462.038 253.213,460.73 	"/>
	<path clip-path="url(#SVGID_2_)" fill="#255F2F" d="M263.004,464.246c-0.239-0.572-0.749-1.117-1.482-1.57l-2.39-1.48l-0.051-0.032
		l-0.618,0.997l-0.028,0.05l0.703,0.436l-2.587,4.176l-0.654-0.406l-0.05-0.029l-0.618,0.996l-0.027,0.049l2.576,1.599l0.05,0.03
		l0.62-0.994l0.029-0.05l-0.77-0.478l0.798-1.284c0.123,0.085,0.284,0.184,0.45,0.288c0.115,0.071,0.232,0.133,0.356,0.198
		l-0.211,3.072l-0.003,0.035l1.455,0.9l0.049,0.03l0.618-0.994l0.032-0.049l-0.726-0.45l0.091-2.163
		c0.898,0.139,1.729-0.246,2.195-0.995C263.192,465.515,263.259,464.863,263.004,464.246 M260.295,463.364l0.521,0.324
		c0.499,0.309,1.264,0.947,0.775,1.734c-0.375,0.601-1.13,0.669-1.921,0.179c-0.293-0.18-0.44-0.281-0.54-0.356L260.295,463.364z"/>
	<polygon clip-path="url(#SVGID_2_)" fill="#255F2F" points="271.05,467.721 266.108,465.373 266.057,465.347 265.553,466.406 
		265.525,466.458 266.271,466.812 264.167,471.247 263.421,470.89 262.917,471.95 262.893,472.002 267.842,474.356 267.894,474.382 
		268.81,472.458 268.836,472.406 267.705,471.869 267.653,471.843 267.238,472.718 265.394,471.843 266.222,470.097 
		268.148,471.012 268.202,471.039 268.683,470.03 268.709,469.977 266.727,469.036 267.51,467.39 269.343,468.261 268.952,469.083 
		268.928,469.135 270.057,469.673 270.109,469.698 271.022,467.772 	"/>
	<path clip-path="url(#SVGID_2_)" fill="#255F2F" d="M275.559,469.273c-1.368-0.477-2.613,0.009-3.029,1.186
		c-0.451,1.292,0.311,2.04,1.436,2.96c0.662,0.527,1.037,0.954,0.863,1.448c-0.08,0.227-0.221,0.391-0.418,0.484
		c-0.266,0.132-0.637,0.125-1.06-0.029c-0.395-0.138-0.728-0.355-0.922-0.606c0.099-0.106,0.166-0.224,0.219-0.37
		c0.062-0.18,0.047-0.389-0.041-0.572c-0.096-0.206-0.277-0.361-0.507-0.442c-0.207-0.071-0.42-0.067-0.604,0.022
		c-0.213,0.103-0.38,0.305-0.474,0.573c-0.149,0.422-0.028,0.938,0.334,1.415c0.366,0.483,0.93,0.879,1.587,1.109
		c0.4,0.142,0.788,0.211,1.149,0.211c0.29,0,0.561-0.045,0.811-0.134c0.588-0.211,1.02-0.663,1.245-1.303
		c0.458-1.302-0.337-2.077-1.423-2.955c-0.582-0.477-1.051-0.914-0.867-1.438c0.17-0.486,0.67-0.65,1.292-0.432
		c0.415,0.147,0.646,0.329,0.771,0.467c-0.061,0.066-0.11,0.139-0.161,0.28c-0.068,0.197-0.056,0.414,0.033,0.603
		c0.068,0.14,0.211,0.33,0.507,0.434c0.212,0.076,0.431,0.062,0.612-0.029c0.194-0.099,0.344-0.283,0.431-0.53
		C277.645,470.765,276.858,469.734,275.559,469.273"/>
	<polygon clip-path="url(#SVGID_2_)" fill="#255F2F" points="284.298,471.863 284.031,473.066 284.916,473.262 284.526,475.02 
		281.371,474.322 281.759,472.564 282.642,472.761 282.905,471.558 279.943,470.902 279.887,470.891 279.621,472.092 
		280.428,472.271 279.368,477.062 278.563,476.886 278.297,478.085 281.261,478.741 281.318,478.752 281.583,477.554 280.7,477.356 
		281.109,475.505 284.267,476.2 283.858,478.055 282.975,477.859 282.709,479.061 285.672,479.717 285.729,479.729 285.996,478.526 
		285.188,478.348 286.248,473.556 287.053,473.734 287.318,472.532 284.354,471.877 	"/>
	<path clip-path="url(#SVGID_2_)" fill="#255F2F" d="M301.366,476.34c-0.741-0.247-1.311-0.479-1.322-1.033
		c-0.015-0.513,0.389-0.845,1.052-0.862c0.025-0.001,0.052-0.001,0.075-0.001c0.395,0,0.654,0.084,0.812,0.163
		c-0.033,0.077-0.056,0.167-0.052,0.319c0.012,0.379,0.31,0.774,0.846,0.774h0.026c0.226-0.006,0.424-0.093,0.562-0.248
		c0.146-0.159,0.219-0.385,0.212-0.646c-0.01-0.442-0.279-0.848-0.749-1.139c-0.441-0.273-1.021-0.421-1.648-0.421
		c-0.032,0-0.07,0-0.103,0.001c-0.722,0.018-1.333,0.248-1.774,0.659c-0.421,0.396-0.646,0.937-0.63,1.524
		c0.036,1.367,1.015,1.794,2.392,2.252c0.806,0.256,1.307,0.52,1.319,1.042c0.008,0.24-0.065,0.446-0.216,0.603
		c-0.208,0.219-0.553,0.34-0.999,0.352c-0.023,0.002-0.049,0.002-0.071,0.002c-0.391,0-0.752-0.087-1.007-0.245
		c0.056-0.13,0.078-0.264,0.072-0.42c-0.005-0.191-0.092-0.381-0.24-0.52c-0.156-0.15-0.371-0.233-0.604-0.233H299.3
		c-0.498,0.015-0.816,0.393-0.802,0.939c0.007,0.33,0.166,0.653,0.462,0.93c0.496,0.47,1.284,0.744,2.125,0.744
		c0.034,0,0.069,0,0.104-0.001c0.844-0.02,1.56-0.296,2.011-0.77c0.371-0.394,0.56-0.918,0.544-1.516
		C303.707,477.212,302.69,476.772,301.366,476.34"/>
	<polygon clip-path="url(#SVGID_2_)" fill="#255F2F" points="311.872,477.553 310.638,477.718 310.579,477.727 310.707,478.687 
		308.683,478.958 308.427,477.043 310.54,476.763 310.6,476.754 310.453,475.647 310.443,475.588 308.271,475.879 308.029,474.073 
		310.042,473.804 310.164,474.708 310.173,474.766 311.407,474.599 311.466,474.592 311.185,472.482 311.176,472.423 
		305.758,473.146 305.7,473.153 305.854,474.315 305.863,474.375 306.682,474.265 307.332,479.128 306.571,479.229 306.513,479.237 
		306.666,480.396 306.674,480.455 312.103,479.732 312.162,479.724 311.881,477.613 	"/>
	<path clip-path="url(#SVGID_2_)" fill="#255F2F" d="M320.73,476.529l-2.892-4.349l0.745-0.185l-0.294-1.185l-4.035,0.998
		l-0.059,0.014l0.294,1.184l0.746-0.183l-0.531,5.196l-0.627,0.156l0.295,1.194l2.765-0.684l0.058-0.014l-0.294-1.187l-0.833,0.206
		l0.098-1.127l2.55-0.632l0.615,0.953l-0.792,0.194l0.295,1.185l2.819-0.698l-0.296-1.194L320.73,476.529z M318.068,474.907
		l-1.808,0.447l0.274-2.767L318.068,474.907z"/>
	<path clip-path="url(#SVGID_2_)" fill="#255F2F" d="M324.69,471.863h-0.146c-0.779,0-1.394-0.04-1.582-0.561
		c-0.084-0.229-0.063-0.459,0.056-0.657c0.125-0.21,0.358-0.381,0.672-0.495c0.412-0.146,0.703-0.157,0.895-0.127
		c-0.008,0.085,0,0.175,0.051,0.319c0.07,0.191,0.217,0.354,0.404,0.442c0.143,0.064,0.374,0.123,0.67,0.015
		c0.21-0.076,0.373-0.221,0.453-0.41c0.088-0.2,0.087-0.436-0.003-0.684c-0.313-0.855-1.572-1.161-2.87-0.684
		c-1.36,0.495-2.014,1.659-1.587,2.832c0.461,1.268,1.502,1.38,2.924,1.38c0.061,0,0.133-0.001,0.198-0.001
		c0.769,0,1.274,0.106,1.445,0.573c0.196,0.543-0.12,1.025-0.852,1.291c-0.391,0.142-0.786,0.18-1.101,0.112
		c0.01-0.143-0.01-0.271-0.065-0.425c-0.066-0.18-0.208-0.33-0.395-0.417c-0.202-0.097-0.443-0.102-0.671-0.019
		c-0.225,0.082-0.39,0.234-0.471,0.441s-0.078,0.448,0.015,0.701c0.223,0.61,0.96,0.961,1.836,0.961c0.401,0,0.828-0.072,1.25-0.228
		c1.492-0.543,2.159-1.711,1.699-2.978C327.063,471.997,326.019,471.863,324.69,471.863"/>
	<path clip-path="url(#SVGID_2_)" fill="#255F2F" d="M333.471,465.709c-0.929-0.336-1.965-0.261-2.916,0.213
		c-0.96,0.477-1.659,1.257-1.968,2.2c-0.305,0.931-0.215,1.963,0.252,2.904c0.468,0.942,1.227,1.642,2.134,1.969
		c0.383,0.136,0.78,0.204,1.185,0.204c0.58,0,1.171-0.141,1.731-0.419c1.977-0.979,2.696-3.126,1.715-5.104
		C335.138,466.732,334.38,466.035,333.471,465.709 M333.354,471.625c-1.229,0.617-2.601,0.095-3.255-1.222
		c-0.65-1.317-0.23-2.719,0.999-3.33c0.348-0.171,0.703-0.254,1.051-0.254c0.891,0,1.728,0.532,2.195,1.479
		C334.998,469.618,334.581,471.016,333.354,471.625"/>
	<polygon clip-path="url(#SVGID_2_)" fill="#255F2F" points="342.204,460.478 341.556,459.502 341.522,459.453 339.052,461.096 
		339.004,461.129 339.654,462.105 339.687,462.153 340.438,461.651 342.214,464.322 336.886,462.565 336.858,462.559 
		335.266,463.616 335.218,463.648 335.865,464.623 335.898,464.672 336.588,464.214 339.302,468.3 338.662,468.724 338.612,468.757 
		339.262,469.732 339.296,469.78 341.794,468.12 341.843,468.085 341.191,467.112 341.159,467.064 340.407,467.562 338.383,464.516 
		344.301,466.464 344.328,466.474 344.946,466.032 341.546,460.917 	"/>
	<path clip-path="url(#SVGID_2_)" fill="#255F2F" d="M352.003,458.614l-4.554-2.556l0.581-0.505l-0.8-0.921l-3.184,2.765l0.801,0.92
		l0.579-0.504l1.89,4.868l-0.488,0.424l0.807,0.931l2.193-1.905l-0.799-0.921l-0.647,0.563l-0.425-1.051l1.982-1.722l0.98,0.568
		l-0.615,0.533l0.801,0.922l2.193-1.905l-0.81-0.928L352.003,458.614z M348.895,458.381l-1.406,1.219l-1.012-2.588L348.895,458.381z
		"/>
	<polygon clip-path="url(#SVGID_2_)" fill="#255F2F" points="357.087,451.788 356.235,452.713 356.194,452.757 356.95,453.451 
		355.682,454.833 352.06,451.511 352.668,450.849 352.707,450.807 351.846,450.013 351.803,449.973 349.715,452.249 
		349.674,452.291 350.537,453.082 350.579,453.124 351.139,452.514 354.753,455.829 354.195,456.438 355.059,457.229 
		355.102,457.27 358.699,453.347 358.74,453.303 357.129,451.827 	"/>
	<polygon clip-path="url(#SVGID_2_)" fill="#255F2F" points="365.336,441.948 363.806,441.045 364.864,439.256 364.892,439.205 
		363.872,438.603 362.784,440.442 361.103,439.448 362.102,437.756 362.936,438.25 363.572,437.174 363.602,437.125 
		361.767,436.041 361.718,436.012 358.97,440.662 358.939,440.711 359.997,441.338 360.419,440.625 364.643,443.121 
		364.223,443.834 365.23,444.428 365.282,444.459 366.852,441.801 366.883,441.75 365.823,441.123 	"/>
	<path clip-path="url(#SVGID_2_)" fill="#255F2F" d="M370.645,431.463l-5.206-0.436l0.318-0.699l-1.107-0.505l-1.726,3.78
		l-0.025,0.053l1.108,0.506l0.319-0.699l3.741,3.647l-0.268,0.588l1.118,0.51l1.207-2.642l-1.112-0.508l-0.354,0.781l-0.824-0.781
		l1.092-2.387l1.128,0.11l-0.338,0.74l1.109,0.507l1.18-2.588l0.025-0.055l-1.117-0.51L370.645,431.463z M367.719,432.541
		l-0.773,1.692l-1.996-1.933L367.719,432.541z"/>
	<path clip-path="url(#SVGID_2_)" fill="#255F2F" d="M372.371,423.826c-1.308-0.43-2.069,0.381-2.927,1.479
		c-0.483,0.615-0.906,1.069-1.418,0.894c-0.206-0.066-0.362-0.195-0.451-0.373c-0.121-0.241-0.122-0.555-0.006-0.908
		c0.137-0.418,0.315-0.651,0.453-0.781c0.063,0.057,0.135,0.107,0.282,0.156c0.371,0.124,0.849-0.037,1.026-0.559
		c0.147-0.453-0.086-0.869-0.581-1.033c-0.87-0.287-1.884,0.522-2.315,1.83c-0.226,0.685-0.219,1.338,0.021,1.891
		c0.229,0.533,0.663,0.928,1.224,1.111c1.302,0.431,2.035-0.348,2.927-1.489c0.52-0.672,0.943-1.054,1.433-0.892
		c0.276,0.09,0.458,0.268,0.543,0.525c0.082,0.253,0.065,0.581-0.054,0.941c-0.132,0.4-0.346,0.736-0.594,0.936
		c-0.105-0.096-0.223-0.163-0.374-0.21c-0.356-0.119-0.839,0.067-1.003,0.567c-0.153,0.464,0.095,0.892,0.615,1.066
		c0.115,0.035,0.235,0.055,0.356,0.055c0.824,0,1.74-0.838,2.13-2.026C374.156,425.496,373.652,424.25,372.371,423.826"/>
	<polygon clip-path="url(#SVGID_2_)" fill="#255F2F" points="374.929,417.023 374.872,417.01 374.683,417.895 369.848,416.862 
		370.104,415.661 371.169,415.887 371.225,415.9 371.485,414.688 371.499,414.633 369.263,414.152 369.206,414.141 367.874,420.354 
		367.861,420.411 370.096,420.891 370.153,420.903 370.414,419.692 370.426,419.635 369.304,419.395 369.562,418.194 
		374.396,419.229 374.209,420.115 375.354,420.359 375.412,420.37 376.063,417.327 376.077,417.27 	"/>
	<path clip-path="url(#SVGID_2_)" fill="#255F2F" d="M246.954,350.68l-0.938,1.1l-3.625-0.707c0.448-1.47,0.031-2.972-1.104-3.943
		c-0.933-0.792-2.005-1.071-3.104-0.8c-1.022,0.253-2.063,0.974-3.013,2.087l-3.099,3.636l-0.06,0.069l1.58,1.347l0.912-1.069
		l6.362,5.422l-0.851,0.999l-0.06,0.07l1.509,1.288l0.069,0.06l3.342-3.922l0.06-0.07l-1.581-1.345l-0.995,1.17l-1.968-1.676
		c0.166-0.174,0.354-0.398,0.57-0.651l0.038-0.042c0.145-0.17,0.277-0.35,0.426-0.55l5.109,1.141l0.054,0.012l1.884-2.208
		l0.061-0.07l-1.51-1.288L246.954,350.68z M235.996,350.649l0.682-0.799c0.552-0.652,1.101-1.056,1.628-1.211
		c0.543-0.154,1.041-0.038,1.495,0.35h0.002c0.453,0.385,0.672,0.901,0.635,1.49c-0.039,0.587-0.324,1.206-0.826,1.796
		c-0.375,0.441-0.584,0.664-0.74,0.823L235.996,350.649z"/>
	<path clip-path="url(#SVGID_2_)" fill="#255F2F" d="M250.924,336.37l1.041-0.857l-1.32-1.603l-3.846,3.168l-0.069,0.057
		l1.317,1.602l1.144-0.942l3.694,4.486c0.575,0.702,0.851,1.379,0.811,2.011c-0.039,0.608-0.365,1.167-0.97,1.663
		c-0.591,0.486-1.204,0.682-1.831,0.585c-0.642-0.099-1.258-0.507-1.837-1.208l-3.645-4.426l1.143-0.941l-1.319-1.603l-3.889,3.204
		l-0.069,0.057l1.317,1.6l1.041-0.856l3.717,4.515c1.08,1.314,2.317,1.974,3.602,1.974c1.028,0,2.084-0.422,3.116-1.271
		c1.085-0.894,1.725-1.957,1.853-3.076c0.139-1.206-0.304-2.435-1.31-3.656L250.924,336.37z"/>
	<polygon clip-path="url(#SVGID_2_)" fill="#255F2F" points="265.8,327.607 264.85,325.864 264.807,325.783 260.381,328.197 
		260.3,328.239 261.252,329.981 261.294,330.063 262.644,329.327 265.271,334.147 256.479,330.363 256.438,330.345 253.584,331.899 
		253.505,331.944 254.453,333.688 254.498,333.767 255.729,333.094 259.731,340.438 258.5,341.108 259.448,342.854 259.492,342.934 
		263.969,340.495 264.05,340.452 263.099,338.707 263.055,338.629 261.705,339.363 258.711,333.868 268.473,338.065 
		268.518,338.082 269.541,337.478 269.618,337.435 264.616,328.254 	"/>
	<polygon clip-path="url(#SVGID_2_)" fill="#255F2F" points="283.651,324.137 285.779,323.628 284.881,319.856 284.859,319.769 
		274.362,322.274 274.273,322.295 275.174,326.066 275.194,326.156 277.321,325.646 276.871,323.75 278.918,323.263 
		280.871,331.453 279.374,331.81 279.857,333.828 284.996,332.602 285.084,332.581 284.603,330.56 283.107,330.918 281.154,322.73 
		283.199,322.24 	"/>
	<path clip-path="url(#SVGID_2_)" fill="#255F2F" d="M291.922,319.149c-2.533,0.216-4.284,2.243-4.074,4.709
		c0.098,1.17,0.612,2.213,1.443,2.939c0.782,0.682,1.777,1.036,2.897,1.036c0.155,0,0.312-0.007,0.472-0.021
		c1.275-0.108,2.39-0.67,3.132-1.584c0.707-0.865,1.041-1.975,0.941-3.124c-0.099-1.169-0.612-2.211-1.443-2.937
		C294.399,319.39,293.231,319.039,291.922,319.149 M290.884,325.385c-0.43-0.408-0.702-1.02-0.76-1.719
		c-0.125-1.44,0.681-2.524,1.958-2.632c0.067-0.006,0.134-0.01,0.199-0.01c1.179,0,2.063,0.907,2.179,2.27
		c0.122,1.443-0.684,2.527-1.959,2.636C291.874,325.982,291.318,325.795,290.884,325.385"/>
	<polygon clip-path="url(#SVGID_2_)" fill="#255F2F" points="316.44,324.427 317.019,320.596 317.034,320.505 306.368,318.892 
		306.276,318.877 305.695,322.708 305.682,322.801 307.847,323.128 308.14,321.2 310.216,321.517 308.958,329.835 307.438,329.604 
		307.128,331.657 312.347,332.446 312.438,332.46 312.75,330.408 311.231,330.178 312.492,321.859 314.567,322.174 314.276,324.1 	
		"/>
	<path clip-path="url(#SVGID_2_)" fill="#255F2F" d="M323.111,322.183l-0.677,1.941l1.238,0.432l-5.589,6.924l-1.031-0.358
		l-0.682,1.957l4.562,1.585l0.087,0.031l0.674-1.941l-1.379-0.482l1.197-1.53l4.228,1.469l-0.007,1.942l-1.31-0.453l-0.674,1.941
		l4.561,1.586l0.087,0.03l0.682-1.96l-1.032-0.359l-0.093-8.899l1.234,0.43l0.676-1.941l-6.666-2.315L323.111,322.183z
		 M325.769,330.163l-3.009-1.046l2.977-3.712L325.769,330.163z"/>
	<path clip-path="url(#SVGID_2_)" fill="#255F2F" d="M343.396,335.256c0.491-0.845,0.562-1.758,0.203-2.643
		c-0.379-0.935-1.241-1.814-2.494-2.543l-4.336-2.521l-0.996,1.713l-0.049,0.079l1.214,0.707l-4.201,7.222l-1.136-0.66l-0.078-0.046
		l-1.044,1.794l4.515,2.626c1.086,0.633,2.123,0.945,3.038,0.945c1.212,0,2.209-0.547,2.835-1.62
		c0.708-1.215,0.537-2.437-0.501-3.639C341.668,336.847,342.766,336.343,343.396,335.256 M336.388,335.533l1.312,0.763
		c1.336,0.777,1.77,1.724,1.226,2.666c-0.54,0.923-1.588,1.028-2.874,0.281l-1.359-0.794L336.388,335.533z M338.929,331.162
		l1.119,0.65c1.265,0.736,1.687,1.614,1.188,2.47c-0.521,0.894-1.544,1.01-2.742,0.315l-1.167-0.679L338.929,331.162z"/>
	<polygon clip-path="url(#SVGID_2_)" fill="#255F2F" points="350.878,348.074 349.179,346.64 348.054,347.971 345.605,345.901 
		351.012,339.503 352.257,340.555 353.596,338.971 349.591,335.588 349.521,335.53 348.183,337.114 349.253,338.021 343.86,344.404 
		342.787,343.496 341.451,345.083 348.357,350.918 348.429,350.977 350.819,348.145 	"/>
	<polygon clip-path="url(#SVGID_2_)" fill="#255F2F" points="360.08,344.977 360.021,344.907 358.432,346.243 359.336,347.32 
		352.932,352.702 352.029,351.627 350.438,352.961 356.432,360.093 356.49,360.163 359.33,357.776 357.909,356.088 356.646,357.146 
		354.399,354.475 356.927,352.351 359.328,355.206 360.848,353.93 358.447,351.075 360.831,349.069 363.066,351.726 
		361.803,352.787 363.225,354.478 366.062,352.093 	"/>
	<path clip-path="url(#SVGID_2_)" fill="#255F2F" d="M312.61,440.58l0.078,0.078l0.104-0.027c2.389-0.566,13.921-3.444,26.588-9.045
		c-0.774-3.027-2.221-5.869-3.972-7.795c-3.147,1.906-8.926,4.709-17.903,6.686l-0.387,0.084l-0.204-0.338
		c-0.74-1.223-2.63-4.691-4.193-10.502c-0.166-0.618-0.321-1.202-0.469-1.775c-0.929,1.031-2.078,1.809-3.443,2.104
		c-1.888,0.403-3.637,0.527-6.663,0.459c-0.994-0.021-2.055,0.006-3.134,0.057C302.086,426.885,307.286,435.23,312.61,440.58"/>
	<path clip-path="url(#SVGID_2_)" fill="#255F2F" d="M345.666,417.777l-0.367,0.045c-0.174,0.023-4.112,0.562-6.417,4.033
		c2.703,3.301,3.84,7.185,4.173,8.537c8.782,6.668,10.332,7.23,10.743,7.23c0.046,0,0.079-0.005,0.105-0.012
		c1.169-0.258,1.5-1.92,1.533-2.107l0.035-0.193L345.666,417.777z"/>
	<path clip-path="url(#SVGID_2_)" fill="#255F2F" d="M306.616,409.481c-5.649,0-9.836-2.112-9.903-2.146l-0.161-0.083l-0.081-0.165
		c-0.16-0.327-0.307-0.66-0.46-0.993c-0.817,0.171-1.642,0.339-2.44,0.521c-7.372,1.672-17.576,4.608-24.322,9.108l-0.093,0.06
		l0.009,0.267c-0.006,2.396,0.13,14.353,3.094,27.722c3.324-0.18,6.801-1.113,9.021-2.42c-1.038-3.305-2.35-9.197-2.548-18.27
		l-0.01-0.394l0.371-0.136c1.537-0.559,14.173-3.324,23.077-3.146c2.98,0.065,4.591-0.045,6.408-0.436
		c3.294-0.708,5.291-4.868,5.021-8.161c-0.067-0.845-0.297-1.608-0.613-2.305C310.76,409.205,308.596,409.481,306.616,409.481"/>
	<path clip-path="url(#SVGID_2_)" fill="#255F2F" d="M335.809,391.004v0.003c0.062-1.869-2.645-4.974-3.276-5.673
		c-0.033-0.136-0.081-0.306-0.13-0.477l0.87,0.3l-0.216-0.961c-0.851-3.776-3.635-11.9-8.666-18.413l-0.459-0.592l-0.738,0.104
		c-0.587,0.084-12.938,1.849-20.578,4.69c-0.094-0.098-0.199-0.2-0.287-0.294l-0.494-0.531c-1.561,0.401-2.863,1.093-3.96,1.947
		l-1.113,6.86l-0.322,1.984l-1.498-1.337l-1.432-1.275c-1.05,2.74-1.254,5.097-1.257,5.148l-0.003,0.032
		c-0.567,4.219,0.677,14.704,5.13,23.914c1.298,0.604,10.296,4.449,19.188-0.691c-6.711-2.471-9.368-12.245-8.943-16.041
		c0.395-3.502,0.418-6.317,0.208-8.631c1.344-0.531,2.757-1.207,4.254-2.061l0.158-0.091c3.169-1.798,6.684-3.233,8.392-3.891
		c2.862,4.226,5.938,10.152,6.071,10.882l0.123,1.159l0.817-0.837c0.001-0.003,0.042-0.039,0.074-0.072
		c0.105,0.294,0.149,0.493,0.144,0.578l-0.632,4.428l1.715,3.445l0.405-0.072c0.321-0.058,0.825-0.298,1.167-0.852
		c0.432,0.261,1.096,0.461,2.066,0.342c0.672-0.081,1.214-0.408,1.908-0.826C335.992,392.304,335.819,391.004,335.809,391.004
		 M333.865,392.294c-0.567,0.342-0.976,0.587-1.414,0.641c-1.305,0.163-1.651-0.444-1.658-0.456l-0.756-1.679l-0.289,1.818
		c-0.047,0.292-0.152,0.485-0.258,0.609l-1.12-2.245l0.58-4.059c0.065-0.335-0.08-0.866-0.312-1.451
		c0.642-0.408,1.546-0.808,2.562-0.807c0.126,0.419,0.231,0.797,0.29,1.056l0.034,0.146l0.1,0.108
		c1.212,1.312,3.121,3.829,3.087,5.096C334.72,391.139,334.771,391.751,333.865,392.294"/>
	<path clip-path="url(#SVGID_2_)" fill="#255F2F" d="M289.885,375.673l-0.695-0.197l-0.066-0.019l-1.131,0.488
		c-1.041,1.882-1.807,4.209-1.807,6.667c0,8.216,1.981,16.02,5.848,23.238c0.438-0.106,0.882-0.213,1.293-0.309
		c0.702-0.159,1.426-0.309,2.148-0.457c-3.067-7.05-4.374-14.391-4.557-19.128C289.019,383.224,289.037,378.826,289.885,375.673"/>
	<path clip-path="url(#SVGID_2_)" fill="#255F2F" d="M282.494,444.85c-3.122,1.67-6.969,2.218-8.886,2.389
		c-9.374,8.359-9.374,9.073-9.368,9.414c0.032,1.197,1.596,1.84,1.772,1.911l0.184,0.071l19.101-6.232l0.024-0.372
		c0.013-0.167,0.243-4.172-2.758-7.112L282.494,444.85z"/>
	<path clip-path="url(#SVGID_2_)" fill="#255F2F" d="M292.064,364.732l-0.359-1.041c-1.398,0.482-3.385,1.032-4.941,0.911
		c-2.031-0.155-2.147-0.578-2.358-1.341c-0.264-0.955-0.3-3.779-0.289-4.786l0.003-0.323l-0.916-0.523
		c0.718-0.796,1.84-2.239,1.68-3.346c-0.045-0.326-0.055-0.6-0.082-0.899c-0.452-0.109-0.832-0.205-1.146-0.29
		c0.029,0.424,0.069,0.865,0.138,1.345c0.095,0.66-1.055,2.136-1.859,2.924l-0.522,0.511l1.603,0.915
		c0,0.947,0.027,3.675,0.33,4.764c0.362,1.31,0.953,1.964,3.334,2.148c0.171,0.012,0.348,0.018,0.526,0.018
		c0.899,0,1.866-0.163,2.785-0.384c0.594,1.407,1.277,3.458,1.317,4.719l1.102,0.045c-0.035-1.694-0.919-4.022-1.343-5.049
		C291.418,364.947,291.758,364.837,292.064,364.732"/>
	<path clip-path="url(#SVGID_2_)" fill="#255F2F" d="M282.613,347.12l0.9,0.307c0.113,0.039,0.213,0.098,0.304,0.161l0.341,0.17
		c4.716,2.32,16.363,2.835,19.12,2.926c-0.462-1.929-1.394-4.035-2.986-5.608c-3.05-3.02-7.718-2.282-9.077-1.983
		c-2.352,0.513-3.684,1.334-4.309,1.824c-0.936-0.766-2.183-0.509-2.781-0.221l-1.121,0.537l1.151,0.469
		c0.115,0.048,0.225,0.113,0.321,0.186c-0.659,0.179-1.121,0.578-1.151,0.605L282.613,347.12z"/>
	<path clip-path="url(#SVGID_2_)" fill="#255F2F" d="M299.939,361.391c1.617-1.267,3.141-4.134,3.597-6.729
		c-1.847,0.189-3.648,0.282-5.364,0.282c-2.382,0-4.593-0.154-6.566-0.381c-0.021,0.967-0.078,1.95-0.137,2.244l-0.107,0.537
		l0.536,0.111c0.006,0.002,0.521,0.114,1.043,0.491l0.594,0.43l0.249-0.693c0.166-0.465,0.627-1.239,1.222-1.453
		c0.284-0.105,0.576-0.062,0.888,0.121c0.302,0.179,0.474,0.658,0.475,1.32c0.005,1.346-0.701,3.041-1.45,3.488l-0.321,0.192
		l0.417,2.541l0.634-0.246c0.069-0.029,1.089-0.431,2.205-0.995c0.38,3.372,2.196,6.171,3.734,7.967l0.837-0.713
		c-1.502-1.759-3.3-4.53-3.521-7.825C299.278,361.858,299.638,361.627,299.939,361.391"/>
	<path clip-path="url(#SVGID_2_)" fill="#255F2F" d="M286.411,376.624l-1.379,0.591l0.323-1.981l0.382-2.362
		c-3.459,1.605-5.153,4.607-6.18,6.982c-1.362,3.146-2.928,6.037-3.717,7.438c-4.956-1.467-9.855-3.443-10.855-4.211l-0.713-0.546
		l-0.163,0.882c-0.011,0.049-0.036,0.089-0.047,0.137c-0.352-0.231-0.636-0.437-0.763-0.566c0.288-0.976,0.226-2.086,0.175-2.988
		c-0.018-0.312-0.034-0.607-0.034-0.868c0-0.933,0.483-2.159,0.489-2.172l0.205-0.515h4.027l2.425-2.733H246l2.471,2.736h3.187
		l0.524,0.623c0.025,0.03,2.56,3.054,3.447,4.699c0.381,0.709,1.739,2.9,4.701,5.214c-0.178,0.06-0.312,0.101-0.317,0.102
		l-1.021,0.269l0.799,0.684c4.402,3.783,11.194,7.198,18.632,9.364l0.918,0.267l0.553-0.85c0.411-0.684,2.502-4.049,5.624-7.541
		c-0.288-2.19-0.434-4.412-0.434-6.667C285.084,380.45,285.616,378.406,286.411,376.624 M261.815,376.445
		c-0.535,0.344-0.718,1-0.877,1.607c-0.048,0.178-0.099,0.369-0.161,0.568c-0.317,1.029-0.522,1.554-1.947,1.494
		c-0.627-0.031-1.608-0.82-2.145-1.725c-0.559-0.942-1.355-1.609-1.959-1.942L261.815,376.445z M261.485,386.476
		c-3.23-2.394-4.62-4.733-4.888-5.228c-0.632-1.173-1.977-2.914-2.826-3.972c0.073,0.006,0.136,0.015,0.184,0.024
		c0.261,0.06,1.18,0.637,1.782,1.652c0.642,1.081,1.891,2.206,3.036,2.265c2.147,0.098,2.686-1.064,3.057-2.272
		c0.066-0.215,0.122-0.421,0.172-0.612c0.236-0.898,0.322-1.013,0.646-1.024c-0.15,0.511-0.311,1.199-0.311,1.823
		c0,0.279,0.017,0.595,0.035,0.93c0.052,0.912,0.111,1.945-0.178,2.758c-0.193,0.542,0.476,1.179,1.423,1.779
		C263.075,385.474,262.235,386.081,261.485,386.476"/>
	<path clip-path="url(#SVGID_2_)" fill="#255F2F" d="M269.727,365.7h-22.864c0.758,2.612,3.293,4.869,6.736,5.96l0.256,0.079v1.182
		h8.877v-1.182l0.258-0.079C266.433,370.569,268.968,368.312,269.727,365.7"/>
	<path clip-path="url(#SVGID_2_)" fill="#33B458" d="M336.338,423.157c1.845,2.071,3.317,4.983,4.127,8.158
		c0.217-0.091,0.391-0.159,0.555-0.224c0.283-0.11,0.534-0.213,0.97-0.408c-0.321-1.286-1.487-5.271-4.22-8.44
		C337.351,422.535,336.869,422.84,336.338,423.157"/>
	<path clip-path="url(#SVGID_2_)" fill="#33B458" d="M283.366,351.872c1.761,0.512,10.174,2.738,20.11,1.701
		c0.031-0.612,0.032-1.332-0.03-1.779c-2.398-0.069-14.037-0.517-19.352-2.851C283.775,349.444,283.264,350.483,283.366,351.872"/>
	<path clip-path="url(#SVGID_2_)" fill="#33B458" d="M272.281,444.732c0.047,0.231,0.081,0.414,0.111,0.584
		c0.057,0.3,0.107,0.567,0.216,1.035c1.416-0.07,6.032-0.461,9.74-2.555c-0.208-0.469-0.416-1.005-0.624-1.585
		C279.354,443.572,275.717,444.544,272.281,444.732"/>
	<polygon clip-path="url(#SVGID_2_)" fill="#33B458" points="296.963,369.843 292.395,371.808 292.492,371.206 290.026,371.103 
		289.975,371.433 287.453,369.186 286.441,375.411 289.544,374.077 289.488,374.417 291.864,375.084 291.96,374.485 
		295.673,377.792 	"/>
	<path clip-path="url(#SVGID_2_)" fill="#33B458" d="M232.944,371.426c-0.611,0.246-1.14,0.573-1.584,0.928
		c0.469-1.072,0.952-2.137,1.466-3.184c0.921-0.34,2-1.422,2.75-2.796c0.983-1.794,1.088-3.435,0.769-4.2l-0.052-0.12l-0.129,0.007
		c-0.915,0.05-2.35,1.031-3.321,2.813c-0.866,1.573-1.023,3.068-0.755,3.937c-0.521,1.064-1.012,2.144-1.485,3.232
		c-0.043-0.588-0.156-1.219-0.349-1.842c-0.524-1.697-1.58-3.025-2.565-3.23l-0.119-0.024l-0.069,0.097
		c-0.6,0.851-0.881,2.665-0.258,4.482c0.531,1.615,1.506,2.64,2.334,2.968c-0.421,1.058-0.813,2.128-1.19,3.202
		c-0.087-0.585-0.248-1.203-0.487-1.809c-0.65-1.651-1.802-2.898-2.798-3.029l-0.121-0.016l-0.062,0.105
		c-0.521,0.866-0.672,2.732,0.078,4.488c0.647,1.57,1.697,2.52,2.548,2.783c-0.004,0.021-0.01,0.04-0.017,0.06l-0.009,0.027
		l-0.054,0.175l0.003,0.001c-0.312,1.007-0.604,2.023-0.875,3.043c-0.129-0.594-0.315-1.211-0.61-1.819
		c-0.768-1.6-2.007-2.753-3.015-2.81l-0.119-0.005l-0.057,0.105c-0.455,0.9-0.469,2.775,0.413,4.47
		c0.762,1.515,1.881,2.389,2.749,2.589c-0.263,1.123-0.493,2.255-0.708,3.387c-0.173-0.582-0.403-1.181-0.742-1.762
		c-0.881-1.525-2.19-2.577-3.193-2.577h-0.024l-0.121,0.002l-0.047,0.111c-0.389,0.934-0.26,2.804,0.745,4.428
		c0.883,1.463,2.057,2.219,2.938,2.345c-0.003,0.019-0.006,0.036-0.009,0.055c-0.003,0.021-0.007,0.041-0.009,0.062l-0.028,0.18
		l0.004,0.002c-0.16,1.056-0.301,2.093-0.42,3.112c-0.216-0.559-0.487-1.131-0.862-1.683c-0.956-1.398-2.273-2.336-3.263-2.336
		c-0.048,0-0.094,0.003-0.14,0.008l-0.119,0.009l-0.039,0.115c-0.321,0.99-0.06,2.805,1.073,4.358
		c0.981,1.377,2.199,2.053,3.081,2.127c-0.165,1.978-0.254,3.933-0.267,5.928l-0.002,0.185l0.819,0.005l0.002-0.182
		c0.015-1.977,0.102-3.908,0.265-5.866c0.066,0.006,0.119,0.031,0.188,0.031c0.928,0,2.195-0.551,3.27-1.457
		c1.288-1.115,2.141-2.569,2.071-3.543l-0.007-0.119l-0.11-0.04c-0.813-0.306-2.374-0.077-3.892,1.154
		c-0.537,0.436-0.933,0.931-1.258,1.429c0.121-1.052,0.265-2.119,0.434-3.212l0.012-0.082c0.006-0.039,0.014-0.081,0.021-0.12
		c0.115,0.019,0.209,0.063,0.339,0.063c0.904,0,2.114-0.446,3.185-1.215c1.363-1.009,2.322-2.397,2.331-3.376l0.001-0.119
		l-0.109-0.051c-0.777-0.364-2.356-0.254-3.966,0.862c-0.56,0.392-0.983,0.847-1.343,1.308c0.212-1.119,0.44-2.233,0.698-3.341
		c0.174,0.039,0.362,0.062,0.569,0.062c0.874,0,2.008-0.349,3.04-0.98c1.435-0.905,2.495-2.218,2.577-3.194l0.009-0.117
		l-0.102-0.058c-0.754-0.424-2.332-0.43-4.021,0.564c-0.567,0.336-1.038,0.736-1.425,1.152c0.279-1.047,0.578-2.088,0.899-3.121
		c0.01-0.031,0.021-0.062,0.033-0.094c0.242,0.075,0.513,0.127,0.826,0.127c0.832,0,1.865-0.263,2.837-0.762
		c1.498-0.793,2.652-2.023,2.805-2.991l0.018-0.118l-0.096-0.064c-0.72-0.483-2.294-0.605-4.053,0.262
		c-0.59,0.292-1.091,0.657-1.506,1.044c0.374-1.067,0.763-2.129,1.183-3.18c0.317,0.129,0.689,0.218,1.137,0.218
		c0.773,0,1.684-0.188,2.56-0.56c1.56-0.683,2.807-1.824,3.023-2.775l0.027-0.114l-0.093-0.072
		C236.319,370.938,234.76,370.697,232.944,371.426"/>
	<path clip-path="url(#SVGID_2_)" fill="#33B458" d="M377.768,391.512l-0.036-0.114l-0.122-0.01
		c-1.012-0.105-2.401,0.864-3.402,2.329c-0.375,0.551-0.647,1.122-0.861,1.682c-0.118-1.02-0.26-2.055-0.422-3.113h0.003
		l-0.026-0.18l-0.004-0.021c-0.004-0.033-0.009-0.063-0.013-0.098c0.881-0.125,2.055-0.881,2.935-2.342
		c1.008-1.626,1.137-3.495,0.746-4.429l-0.045-0.11l-0.12-0.003h-0.026c-1.005,0-2.312,1.053-3.192,2.575
		c-0.337,0.582-0.569,1.182-0.744,1.764c-0.213-1.134-0.445-2.265-0.707-3.388c0.869-0.198,1.988-1.073,2.75-2.586
		c0.88-1.697,0.869-3.572,0.411-4.473l-0.054-0.105l-0.12,0.004c-1.005,0.057-2.246,1.212-3.017,2.809
		c-0.294,0.608-0.48,1.226-0.609,1.822c-0.272-1.022-0.563-2.038-0.874-3.044h0.003l-0.054-0.177l-0.009-0.025
		c-0.007-0.021-0.013-0.041-0.019-0.06c0.851-0.264,1.902-1.214,2.548-2.783c0.752-1.758,0.603-3.624,0.078-4.489l-0.062-0.104
		l-0.119,0.015c-0.998,0.131-2.149,1.377-2.798,3.029c-0.239,0.604-0.401,1.222-0.489,1.807c-0.375-1.074-0.768-2.142-1.188-3.201
		c0.827-0.325,1.803-1.353,2.33-2.964c0.624-1.819,0.344-3.633-0.257-4.485l-0.069-0.097l-0.117,0.025
		c-0.985,0.204-2.042,1.532-2.567,3.228c-0.19,0.624-0.306,1.254-0.348,1.844c-0.474-1.089-0.966-2.169-1.485-3.233
		c0.268-0.87,0.11-2.364-0.751-3.937c-0.974-1.781-2.411-2.763-3.326-2.813l-0.128-0.007l-0.05,0.119
		c-0.319,0.764-0.215,2.405,0.768,4.201c0.751,1.375,1.83,2.457,2.752,2.796c0.511,1.049,0.997,2.113,1.464,3.186
		c-0.444-0.357-0.973-0.684-1.586-0.93c-1.813-0.729-3.375-0.489-4.058,0.043l-0.092,0.072l0.026,0.114
		c0.224,0.951,1.465,2.093,3.026,2.775c0.874,0.371,1.785,0.558,2.558,0.558c0.448,0,0.819-0.087,1.139-0.217
		c0.418,1.052,0.809,2.113,1.182,3.181c-0.415-0.388-0.915-0.751-1.508-1.044c-1.759-0.865-3.334-0.744-4.05-0.262l-0.099,0.064
		l0.02,0.117c0.152,0.968,1.306,2.199,2.81,2.993c0.968,0.496,1.998,0.76,2.831,0.76c0.315,0,0.586-0.051,0.828-0.127
		c0.006,0.019,0.014,0.037,0.02,0.056c0.327,1.045,0.628,2.098,0.911,3.16c-0.385-0.417-0.856-0.816-1.423-1.154
		c-1.688-0.993-3.266-0.987-4.021-0.564l-0.102,0.058l0.008,0.118c0.082,0.979,1.142,2.292,2.579,3.195
		c1.031,0.63,2.161,0.979,3.038,0.979c0.207,0,0.396-0.022,0.569-0.063c0.258,1.11,0.488,2.226,0.697,3.345
		c-0.358-0.463-0.781-0.918-1.342-1.309c-1.611-1.116-3.186-1.229-3.966-0.863l-0.108,0.051l0.001,0.117
		c0.008,0.978,0.965,2.367,2.331,3.378c1.068,0.77,2.278,1.215,3.182,1.215c0.131,0,0.226-0.045,0.343-0.065
		c0.006,0.043,0.015,0.082,0.021,0.122l0.012,0.078c0.168,1.095,0.312,2.165,0.434,3.218c-0.325-0.499-0.722-0.993-1.26-1.43
		c-1.52-1.233-3.076-1.462-3.89-1.156l-0.109,0.042l-0.01,0.118c-0.069,0.971,0.782,2.427,2.073,3.543
		c1.076,0.906,2.342,1.457,3.268,1.457c0.068,0,0.124-0.026,0.19-0.032c0.164,1.958,0.25,3.89,0.263,5.865l0.001,0.183l0.82-0.006
		l-0.001-0.184c-0.014-1.995-0.101-3.947-0.267-5.928c0.882-0.075,2.1-0.75,3.077-2.126
		C377.823,394.318,378.091,392.504,377.768,391.512"/>
	<path clip-path="url(#SVGID_2_)" fill="#33B458" d="M224.674,410.74c0.031,0,0.063-0.002,0.093-0.004
		c0.535-0.051,0.928-0.525,0.876-1.053c-0.025-0.256-0.148-0.486-0.349-0.65c-0.176-0.141-0.392-0.217-0.615-0.217
		c-0.034,0-0.066,0-0.098,0.004c-0.253,0.025-0.486,0.148-0.649,0.348c-0.164,0.2-0.238,0.45-0.216,0.704
		c0.026,0.255,0.149,0.483,0.35,0.649C224.239,410.664,224.453,410.74,224.674,410.74"/>
	<path clip-path="url(#SVGID_2_)" fill="#33B458" d="M245.8,454.823c-0.372,0.376-0.369,0.986,0.006,1.36
		c0.182,0.18,0.421,0.277,0.679,0.277h0.005c0.258-0.001,0.498-0.102,0.678-0.284c0.182-0.184,0.284-0.428,0.284-0.688
		c0-0.259-0.103-0.499-0.281-0.68C246.792,454.438,246.178,454.442,245.8,454.823"/>
	<path clip-path="url(#SVGID_2_)" fill="#33B458" d="M292.507,475.855c-0.03-0.003-0.058-0.003-0.086-0.003
		c-0.491,0-0.914,0.383-0.958,0.888c-0.048,0.53,0.346,0.999,0.875,1.044c0.027,0.003,0.057,0.003,0.083,0.003
		c0.492,0,0.916-0.376,0.961-0.877C293.428,476.374,293.035,475.9,292.507,475.855"/>
	<path clip-path="url(#SVGID_2_)" fill="#33B458" d="M357.924,446.857c-0.318,0.424-0.231,1.031,0.194,1.355
		c0.168,0.128,0.37,0.195,0.579,0.195c0.043,0,0.09-0.004,0.133-0.012c0.258-0.033,0.483-0.166,0.639-0.369
		c0.154-0.203,0.22-0.454,0.186-0.711c-0.036-0.256-0.168-0.484-0.372-0.64C358.858,446.355,358.248,446.436,357.924,446.857"/>
	<path clip-path="url(#SVGID_2_)" fill="#33B458" d="M373.363,410.735c0.031,0.003,0.062,0.005,0.093,0.005
		c0.222,0,0.437-0.076,0.61-0.221c0.2-0.164,0.322-0.393,0.348-0.648c0.024-0.252-0.051-0.504-0.214-0.703
		c-0.165-0.199-0.396-0.322-0.65-0.348c-0.03-0.004-0.065-0.005-0.098-0.005c-0.224,0-0.438,0.076-0.616,0.218
		c-0.199,0.166-0.322,0.395-0.349,0.649C372.438,410.211,372.829,410.685,373.363,410.735"/>
	<polygon clip-path="url(#SVGID_2_)" fill="#33B458" points="295.979,328.812 289.649,329.351 289.56,329.36 289.705,331.112 
		289.715,331.205 296.043,330.667 296.135,330.658 295.987,328.906 	"/>
	<path clip-path="url(#SVGID_2_)" fill="#33B458" d="M257.709,359.054c0.701,0.553,1.416,1.311,1.941,2.299
		c-0.004-0.913,0.176-1.897,0.669-2.873c-0.231-0.059-0.472-0.097-0.723-0.097C258.879,358.383,258.231,358.643,257.709,359.054"/>
	<path clip-path="url(#SVGID_2_)" fill="#33B458" d="M255.608,360.292c0.576,0.779,1.175,1.841,1.429,3.109
		c0.41-0.786,1.067-1.422,1.886-1.777c-0.878-1.624-2.406-2.522-3.146-2.869C255.649,359.31,255.611,359.812,255.608,360.292"/>
	<path clip-path="url(#SVGID_2_)" fill="#33B458" d="M257.416,364.965h6.094c-0.111-1.593-1.427-2.854-3.047-2.854
		C258.845,362.111,257.527,363.372,257.416,364.965"/>
	<path clip-path="url(#SVGID_2_)" fill="#33B458" d="M262.812,356.743c-1.836,1.431-2.373,3.102-2.389,4.561
		c0.014,0,0.027-0.004,0.04-0.004c0.902,0,1.722,0.322,2.379,0.841c-0.223-1.006-0.139-2.207,0.567-3.579
		C263.254,357.778,262.997,357.13,262.812,356.743"/>
	<path clip-path="url(#SVGID_2_)" fill="#33B458" d="M253.413,364.965h2.921c0.169-2.566-1.47-4.47-2.208-5.173
		C252.891,361.79,252.938,363.561,253.413,364.965"/>
	<path clip-path="url(#SVGID_2_)" fill="#33B458" d="M246.807,364.965h2.544c-0.664-2.683-3.097-3.582-4.12-3.826
		C245.221,362.972,245.934,364.169,246.807,364.965"/>
	<path clip-path="url(#SVGID_2_)" fill="#33B458" d="M247.123,361.027c0.593,0.312,1.212,0.744,1.754,1.335
		c-0.293-0.937-0.384-2.022-0.114-3.247C248.047,359.582,247.482,360.244,247.123,361.027"/>
	<path clip-path="url(#SVGID_2_)" fill="#33B458" d="M252.937,360.349c0.188-0.417,0.406-0.842,0.696-1.277
		c-0.647-0.407-1.392-0.667-2.202-0.705C251.955,358.871,252.503,359.533,252.937,360.349"/>
	<path clip-path="url(#SVGID_2_)" fill="#33B458" d="M269.688,364.965c1.538-1.366,1.977-3.313,2.091-4.189
		c-3.376,0.295-4.722,2.515-5.266,4.189H269.688z"/>
	<path clip-path="url(#SVGID_2_)" fill="#33B458" d="M263.94,359.327c-1.219,2.845,0.673,4.736,1.521,5.401
		C266.68,361.884,264.787,359.995,263.94,359.327"/>
	<path clip-path="url(#SVGID_2_)" fill="#33B458" d="M249.907,358.128c-0.604,1.496-0.599,2.769-0.309,3.842
		c0.388-0.229,0.832-0.368,1.312-0.368c0.556,0,1.07,0.174,1.494,0.467c0.037-0.216,0.084-0.432,0.145-0.656
		C251.93,359.697,250.577,358.585,249.907,358.128"/>
	<path clip-path="url(#SVGID_2_)" fill="#33B458" d="M250.911,362.412c-0.595,0-1.095,0.305-1.429,0.744
		c0.318,0.507,0.55,1.119,0.699,1.809h2.428c-0.174-0.571-0.294-1.182-0.297-1.846C251.981,362.695,251.492,362.412,250.911,362.412
		"/>
	<path clip-path="url(#SVGID_2_)" fill="#33B458" d="M266.802,359.492c-0.455,0-0.876,0.137-1.233,0.363
		c0.572,0.747,1.071,1.766,1.087,3.008c0.509-0.776,1.232-1.496,2.209-2.037C268.49,360.046,267.721,359.492,266.802,359.492"/>
</g>
</svg>
