<?xml version="1.0" encoding="utf-8"?>
<!-- Generator: Adobe Illustrator 16.0.3, SVG Export Plug-In . SVG Version: 6.00 Build 0)  -->
<!DOCTYPE svg PUBLIC "-//W3C//DTD SVG 1.1//EN" "http://www.w3.org/Graphics/SVG/1.1/DTD/svg11.dtd">
<svg version="1.1" id="Layer_1" xmlns="http://www.w3.org/2000/svg" xmlns:xlink="http://www.w3.org/1999/xlink" x="0px" y="0px"
	 width="286px" height="211px" viewBox="0 0 286 211" enable-background="new 0 0 286 211" xml:space="preserve">
<path fill="none" stroke="#000000" stroke-width="5" stroke-linecap="round" stroke-linejoin="round" stroke-miterlimit="10" d="
	M12.258,71.773L260.333,72v111.334c0,0-15.999-2.001-26.666-5.334c-7.878-1.725-16.03-2.955-23.886-0.641
	c-6.057,1.787-11.766,4.727-18.038,5.758c-6.649,1.093-12.021-1.354-18.159-3.484c-3.059-1.063-6.146-2.132-9.118-3.42
	c-3.255-1.411-6.718-3.72-10.433-3.208c-7.891,1.087-17.467,3.522-24.367,7.662c-5.355,3.213-14.77,0.437-20.309-0.808
	c-4.031-0.906-8.087-1.942-12.005-3.26c-4.301-1.445-8.563-4.022-13.229-3.938c-12.027,0.216-21.685,10.887-33.789,10.776
	c-5.415-0.051-10.965-0.894-16.237-2.104c-5.279-1.214-10.446-3.334-15.951-3.121c-3.485,0.136-7.015,0.702-10.479,1.122
	L12.258,71.773"/>
<line fill="none" stroke="#000000" stroke-width="4" stroke-linecap="round" stroke-miterlimit="10" x1="76.333" y1="98.667" x2="254.333" y2="98.667"/>
<line fill="none" stroke="#000000" stroke-width="4" stroke-linecap="round" stroke-miterlimit="10" x1="14.333" y1="98.667" x2="43" y2="98.667"/>
<line fill="none" stroke="#000000" stroke-width="5" stroke-linecap="round" stroke-linejoin="round" stroke-miterlimit="10" x1="28.667" y1="181.074" x2="28.667" y2="200.971"/>
<line fill="none" stroke="#000000" stroke-width="5" stroke-linecap="round" stroke-linejoin="round" stroke-miterlimit="10" x1="242.333" y1="180.908" x2="242.333" y2="197.303"/>
<line fill="none" stroke="#000000" stroke-width="5" stroke-linecap="round" stroke-linejoin="round" stroke-miterlimit="10" x1="60.348" y1="181.105" x2="60.348" y2="199.833"/>
<line fill="none" stroke="#000000" stroke-width="5" stroke-linecap="round" stroke-linejoin="round" stroke-miterlimit="10" x1="215.063" y1="175.954" x2="215.063" y2="193.387"/>
<polyline fill="none" stroke="#000000" stroke-width="3" stroke-linecap="round" stroke-miterlimit="10" points="244.741,56.667 
	179.861,56.667 178.973,56.667 "/>
<path d="M179.223,56.667"/>
<path d="M243.667,58.333"/>
<path fill="none" stroke="#000000" stroke-width="3" stroke-linecap="round" stroke-linejoin="round" stroke-miterlimit="10" d="
	M181.75,57.25c8.709,15.385,34.23,17.872,49.213,11.178c4.001-1.787,8.879-5.901,10.557-10.094"/>
<polyline fill="none" stroke="#000000" stroke-width="4" stroke-linecap="round" stroke-miterlimit="10" points="245.313,11.014 
	180.436,11.014 177.545,11.014 "/>
<path fill="none" stroke="#000000" stroke-width="3" stroke-linecap="round" stroke-miterlimit="10" d="M180.259,11.014
	c8.708,15.385,35.794,18.455,50.777,11.761c4.001-1.787,8.879-5.901,10.556-10.094"/>
<polyline fill="none" stroke="#000000" stroke-width="3" stroke-linecap="round" stroke-miterlimit="10" points="246.775,26.333 
	181.898,26.333 179.008,26.333 "/>
<path fill="none" stroke="#000000" stroke-width="3" stroke-linecap="round" stroke-miterlimit="10" d="M181.5,26.25
	c8.708,15.385,35.035,18.326,50.018,11.632c4.002-1.787,8.879-5.901,10.557-10.094"/>
<polyline fill="none" stroke="#000000" stroke-width="3" stroke-linecap="round" stroke-miterlimit="10" points="246.635,41.227 
	181.757,41.227 178.866,41.227 "/>
<path fill="none" stroke="#000000" stroke-width="3" stroke-linecap="round" stroke-miterlimit="10" d="M181.5,41
	c8.708,15.385,33.998,18.682,48.98,11.988c4.002-1.787,8.879-5.901,10.557-10.094"/>
<g>
	<path fill="none" stroke="#000000" stroke-width="2" stroke-miterlimit="10" d="M21.216,40.314c0,3.001-0.438,5.811,0.08,8.527
		c1.7,8.916,7.835,15.958,18.267,21.05c0.873,0.426,1.44,1.164,2.255,1.668c0.51,0.314,1.218,0.66,1.839,0.661
		c12.366,0.039,24.733,0.039,37.099,0c0.622-0.002,1.329-0.346,1.841-0.661c0.721-0.441,1.222-1.069,1.949-1.506
		c2.006-1.201,4.221-2.24,6.104-3.529c10.42-7.13,13.773-16.054,12.616-26.255c-1.468,0-2.969,0-4.447,0
		c1.473-1.977,3.052-3.753,4.158-5.669c1.283-2.226-0.125-4.055-3.402-4.54c-1.666-0.246-3.463-0.123-5.19-0.044
		c-1.63,0.074-3.247,0.308-5.204,0.506c0.537-0.948,0.939-1.592,1.268-2.254c0.839-1.691,0.317-2.911-1.937-3.676
		c-3.9-1.325-8.06-1.883-12.354-1.373c-1.247,0.148-2.389,0.744-3.717,1.181c0-0.693,0.041-1.275-0.007-1.853
		c-0.172-2.082-1.269-2.486-3.651-1.354c-0.623,0.296-1.216,0.625-1.822,0.938c-4.611,2.385-6.096,2.379-10.528-0.207
		c-1.485-0.867-3.122-1.179-4.879-0.825c-3.719,0.75-6.998,2.123-9.741,4.071c-1.938,1.377-2.121,2.931-0.801,4.639
		c0.44,0.57,0.847,1.153,1.341,1.829c-2.697,0.501-5.01,0.97-7.477-0.262c-2.572-1.283-5.434-2.269-8.212-3.402
		c-3.063,4.129-2.79,8.156-0.036,12.341C24.572,40.314,22.85,40.314,21.216,40.314z"/>
	<path fill="none" stroke="#000000" stroke-width="1.8" stroke-linecap="round" stroke-linejoin="round" stroke-miterlimit="10" d="
		M21.216,40.314c1.633,0,3.356,0,5.411,0c-2.753-4.185-3.027-8.211,0.036-12.341c2.778,1.133,5.64,2.119,8.212,3.402
		c2.466,1.232,4.779,0.764,7.477,0.262c-0.494-0.675-0.9-1.258-1.341-1.829c-1.32-1.708-1.137-3.262,0.801-4.639
		c2.743-1.949,6.021-3.322,9.741-4.071c1.757-0.354,3.394-0.042,4.879,0.825c4.432,2.586,5.917,2.592,10.528,0.207
		c0.606-0.313,1.199-0.642,1.822-0.938c2.383-1.131,3.479-0.727,3.651,1.354c0.048,0.578,0.007,1.16,0.007,1.853
		c1.328-0.437,2.47-1.033,3.717-1.181c4.294-0.51,8.454,0.047,12.354,1.373c2.254,0.766,2.776,1.985,1.937,3.676
		c-0.329,0.663-0.731,1.306-1.268,2.254c1.957-0.198,3.574-0.432,5.204-0.506c1.727-0.079,3.524-0.202,5.19,0.044
		c3.277,0.484,4.685,2.314,3.402,4.54c-1.105,1.916-2.685,3.692-4.158,5.669c1.478,0,2.979,0,4.447,0
		c1.157,10.202-2.196,19.125-12.616,26.255c-1.884,1.289-4.099,2.328-6.104,3.529c-0.727,0.437-1.228,1.063-1.949,1.506
		c-0.512,0.314-1.219,0.659-1.841,0.661c-12.366,0.038-24.733,0.038-37.099,0c-0.621-0.001-1.329-0.347-1.839-0.661
		c-0.815-0.506-1.382-1.242-2.255-1.668c-10.431-5.092-16.567-12.134-18.267-21.05C20.779,46.125,21.216,43.316,21.216,40.314z
		 M100.047,47.786c-0.177-0.089-0.354-0.179-0.532-0.269c-0.495,0.226-1.083,0.391-1.466,0.69c-1.043,0.815-1.948,0.794-2.928-0.048
		c-0.938-0.805-2.907-0.753-3.923,0.068c-0.942,0.761-1.98,0.735-2.944-0.075c-0.898-0.755-3.042-0.762-3.959,0.018
		c-1.016,0.864-1.945,0.78-2.954-0.012c-1.018-0.799-2.974-0.756-3.961,0.057c-1.013,0.834-1.949,0.777-2.915-0.06
		c-0.867-0.751-2.967-0.753-3.852-0.04c-1.105,0.89-1.937,0.894-3.011,0.013c-0.846-0.693-3.069-0.748-3.858-0.036
		c-1.047,0.945-1.99,0.859-3.091,0.048c-1.081-0.796-2.902-0.693-3.947,0.14c-0.884,0.704-1.843,0.686-2.737,0.036
		c-1.313-0.955-2.9-0.979-4.138-0.028c-0.886,0.68-1.803,0.722-2.711,0.017c-1.195-0.929-3.076-0.976-4.188-0.076
		c-0.885,0.715-1.751,0.758-2.675,0.052c-1.209-0.925-3-0.917-4.165-0.018c-0.95,0.733-1.935,0.703-2.866-0.033
		c-1.036-0.819-2.988-0.883-3.922-0.077c-0.977,0.843-1.881,0.871-2.928,0.057c-0.384-0.299-0.969-0.466-1.747-0.824
		c0,0.704-0.07,1.063,0.01,1.4c2.217,9.314,8.917,16.328,20.769,20.666c0.737,0.271,1.646,0.418,2.476,0.42
		c9.553,0.028,19.106,0.028,28.66,0c0.832-0.002,1.738-0.149,2.48-0.415c10.035-3.6,16.466-9.369,19.66-17.019
		C99.313,50.927,99.601,49.339,100.047,47.786z M59.043,29.588c0.754,1.613,1.482,3.02,2.059,4.458
		c0.349,0.87,0.887,1.303,2.256,1.401c3.601,0.259,6.24,1.639,7.992,3.904c0.244,0.314,0.583,0.592,1.127,1.135
		c0.081-0.889,0.109-1.423,0.18-1.954c0.414-3.131,3.529-5.364,7.897-5.592c0.981-0.052,2.134,0.363,2.948,0.119
		c2.611-0.783,3.131-0.255,4.097,1.667c0.912,1.815,2.073,3.536,2.2,5.797c1.687-0.215,3.811-0.027,4.603-0.676
		c2.065-1.69,3.664-3.699,5.22-5.673c1.032-1.309,0.413-1.913-1.745-1.833c-2.668,0.099-5.322,0.419-7.99,0.495
		c-2.915,0.083-4.558-1.597-3.662-3.592c0.209-0.465,0.491-0.917,0.798-1.353c0.509-0.721,0.235-1.221-0.82-1.423
		c-1.737-0.332-3.482-0.666-5.251-0.884c-3.104-0.382-5.548,0.173-7.639,2.125c-2.542,2.374-6.238,3.14-10.396,2.492
		C61.77,30.021,60.622,29.837,59.043,29.588z M24.325,45.097c25.292,0,50.483,0,75.737,0c0-0.812,0-1.54,0-2.269
		c-25.325,0-50.518,0-75.737,0C24.325,43.63,24.325,44.326,24.325,45.097z M53.006,38.811c1.573-0.938,2.819-1.808,4.243-2.486
		c0.913-0.435,1.068-0.757,0.706-1.488c-0.851-1.716-1.678-3.453-2.236-5.226c-0.727-2.308,0.591-3.13,3.724-2.526
		c1.558,0.301,3.11,0.751,4.692,0.824c4.691,0.214,4.867-0.324,4.647-3.596c-7.163,2.757-7.358,2.725-14.642-0.528
		c-0.698-0.312-2.015-0.35-2.758-0.091c-2.221,0.774-4.339,1.714-6.421,2.674c-1.514,0.697-1.654,1.597-0.65,2.738
		c2.192,2.492,1.764,3.645-1.882,5.309C46.057,35.923,49.596,37.394,53.006,38.811z M39.815,40.333
		c-0.572-0.282-0.743-0.405-0.95-0.462c-3.687-1.026-5.652-2.92-5.776-5.783c-0.013-0.312-0.21-0.757-0.532-0.902
		c-1.333-0.603-2.745-1.114-4.329-1.738c-0.803,3.209-0.336,6.021,2.317,8.523c0.193,0.182,0.604,0.344,0.917,0.347
		C34.102,40.344,36.741,40.333,39.815,40.333z M81.089,40.336c1.187,0,2.38-0.059,3.557,0.015c1.44,0.09,1.687-0.492,1.658-1.303
		c-0.073-2.061-2.296-3.715-5.056-3.764c-2.634-0.047-5.012,1.504-5.301,3.462c-0.153,1.036,0.103,1.772,1.961,1.607
		C78.953,40.261,80.027,40.337,81.089,40.336z M56.453,40.176c3.901,0,7.666,0,11.591,0C64.73,36.979,59.38,36.983,56.453,40.176z
		 M42.672,37.382c-1.338-2.048-4.945-2.62-7.171-3.548C37.204,37.308,37.009,40.127,42.672,37.382z M52.501,40.833
		c-4.833-3-5.764-1.881-8.825-0.537C45.469,40.297,50.458,40.833,52.501,40.833z"/>
	<path fill="none" stroke="#000000" stroke-width="1.5" stroke-miterlimit="10" d="M100.047,47.786
		c-0.446,1.553-0.734,3.141-1.366,4.654c-3.194,7.65-9.625,13.419-19.66,17.019c-0.742,0.266-1.649,0.413-2.48,0.415
		c-10.762,0.031-19.875,0.025-28.66,0c-0.83-0.002-1.739-0.149-2.476-0.42c-11.852-4.338-18.552-11.352-20.769-20.666
		c-0.081-0.338-0.01-0.696-0.01-1.4c0.778,0.358,1.363,0.525,1.747,0.824c1.047,0.814,1.951,0.786,2.928-0.057
		c0.934-0.806,2.887-0.742,3.922,0.077c0.931,0.736,1.916,0.766,2.866,0.033c1.166-0.899,2.956-0.907,4.165,0.018
		c0.924,0.707,1.791,0.664,2.675-0.052c1.112-0.9,2.993-0.853,4.188,0.076c0.908,0.705,1.825,0.663,2.711-0.017
		c1.238-0.951,2.825-0.927,4.138,0.028c0.894,0.649,1.854,0.668,2.737-0.036c1.045-0.833,2.867-0.936,3.947-0.14
		c1.101,0.811,2.043,0.897,3.091-0.048c0.79-0.712,3.012-0.658,3.858,0.036c1.074,0.88,1.906,0.876,3.011-0.013
		c0.885-0.713,2.985-0.711,3.852,0.04c0.966,0.836,1.902,0.894,2.915,0.06c0.987-0.813,2.943-0.855,3.961-0.057
		c1.008,0.792,1.938,0.876,2.954,0.012c0.917-0.78,3.061-0.773,3.959-0.018c0.964,0.81,2.002,0.836,2.944,0.075
		c1.017-0.821,2.985-0.873,3.923-0.068c0.98,0.842,1.885,0.863,2.928,0.048c0.384-0.299,0.972-0.464,1.466-0.69
		C99.693,47.607,99.87,47.697,100.047,47.786z"/>
	<path fill="none" stroke="#000000" stroke-linecap="round" stroke-linejoin="round" stroke-miterlimit="10" d="M59.043,29.588
		c1.579,0.25,2.727,0.433,3.876,0.613c4.158,0.648,7.854-0.118,10.396-2.492c2.091-1.953,4.534-2.508,7.639-2.125
		c1.769,0.218,3.514,0.552,5.251,0.884c1.056,0.202,1.329,0.702,0.82,1.423c-0.308,0.437-0.589,0.888-0.798,1.353
		c-0.896,1.995,0.747,3.675,3.662,3.592c2.668-0.076,5.322-0.396,7.99-0.495c2.158-0.08,2.777,0.524,1.745,1.833
		c-1.557,1.974-3.155,3.983-5.22,5.673c-0.792,0.648-2.916,0.46-4.603,0.676c-0.127-2.261-1.288-3.982-2.2-5.797
		c-0.966-1.921-1.486-2.449-4.097-1.667c-0.814,0.244-1.967-0.17-2.948-0.119c-4.368,0.229-7.483,2.461-7.897,5.592
		c-0.07,0.531-0.099,1.064-0.18,1.954c-0.544-0.543-0.884-0.82-1.127-1.135c-1.752-2.266-4.392-3.646-7.992-3.904
		c-1.37-0.098-1.907-0.531-2.256-1.401C60.525,32.608,59.798,31.201,59.043,29.588z"/>
	<path fill="none" stroke="#000000" stroke-miterlimit="10" d="M24.325,45.097c0-0.771,0-1.467,0-2.269c25.219,0,50.412,0,75.737,0
		c0,0.729,0,1.458,0,2.269C74.808,45.097,49.617,45.097,24.325,45.097z"/>
	<path fill="none" stroke="#000000" stroke-linejoin="round" stroke-miterlimit="10" d="M53.006,38.811
		c-3.41-1.417-6.949-2.888-10.578-4.396c3.646-1.664,4.075-2.816,1.882-5.309c-1.004-1.141-0.863-2.041,0.65-2.738
		c2.083-0.959,4.2-1.9,6.421-2.674c0.743-0.258,2.06-0.221,2.758,0.091c7.284,3.253,7.479,3.285,14.642,0.528
		c0.22,3.272,0.044,3.81-4.647,3.596c-1.582-0.073-3.134-0.523-4.692-0.824c-3.133-0.604-4.451,0.218-3.724,2.526
		c0.559,1.773,1.385,3.51,2.236,5.226c0.363,0.731,0.208,1.053-0.706,1.488C55.825,37.003,54.579,37.873,53.006,38.811z"/>
	<path fill="none" stroke="#000000" stroke-linejoin="round" stroke-miterlimit="10" d="M39.815,40.333
		c-3.074,0-5.714,0.012-8.353-0.016c-0.313-0.003-0.724-0.165-0.917-0.347c-2.653-2.502-3.12-5.313-2.317-8.522
		c1.584,0.624,2.997,1.135,4.329,1.738c0.321,0.146,0.519,0.59,0.532,0.902c0.124,2.863,2.089,4.756,5.776,5.783
		C39.072,39.928,39.243,40.05,39.815,40.333z"/>
	<path fill="none" stroke="#000000" stroke-miterlimit="10" d="M81.089,40.337c-1.062,0-2.136-0.076-3.181,0.017
		c-1.858,0.165-2.115-0.571-1.961-1.607c0.29-1.958,2.667-3.509,5.301-3.462c2.76,0.049,4.983,1.703,5.056,3.764
		c0.029,0.811-0.217,1.393-1.658,1.303C83.469,40.278,82.275,40.336,81.089,40.337z"/>
	<path fill="none" stroke="#000000" stroke-linejoin="round" stroke-miterlimit="10" d="M56.453,40.176
		c2.927-3.193,8.277-3.197,11.591,0C64.119,40.176,60.354,40.176,56.453,40.176z"/>
</g>
</svg>
