<?xml version="1.0" encoding="utf-8"?>
<!-- Generator: Adobe Illustrator 22.1.0, SVG Export Plug-In . SVG Version: 6.00 Build 0)  -->
<svg version="1.1" id="Layer_1" xmlns="http://www.w3.org/2000/svg" xmlns:xlink="http://www.w3.org/1999/xlink" x="0px" y="0px"
	 viewBox="0 0 186 154" style="enable-background:new 0 0 186 154;" xml:space="preserve">
<style type="text/css">
	.st0{fill:none;stroke:#000000;stroke-width:4;stroke-miterlimit:10;}
	.st1{fill:none;stroke:#000000;stroke-miterlimit:10;}
	.st2{stroke:#000000;stroke-miterlimit:10;}
	.st3{fill:#FFFFFF;stroke:#000000;stroke-miterlimit:10;}
	.st4{fill:none;stroke:#000000;stroke-width:3;stroke-miterlimit:10;stroke-dasharray:3,3;}
	.st5{fill:none;stroke:#000000;stroke-width:5;stroke-miterlimit:10;}
	.st6{fill:none;stroke:#000000;stroke-width:3;stroke-miterlimit:10;}
	.st7{fill:none;stroke:#000000;stroke-width:5;stroke-linecap:square;stroke-miterlimit:10;}
	.st8{clip-path:url(#SVGID_2_);}
	.st9{fill:none;stroke:#000000;stroke-width:3;stroke-miterlimit:10;stroke-dasharray:2.9318,2.9318;}
	.st10{clip-path:url(#SVGID_4_);}
</style>
<g>
	<path class="st0" d="M135.7,136.3c0,4.3-2.9,7.7-6.5,7.7H55.8c-3.6,0-6.5-3.5-6.5-7.7V62.1c0-4.3,2.9-7.7,6.5-7.7h73.4
		c2.7,0,4.9,1.9,5.9,4.6c0.3,0.9,0.5,2,0.5,3.1V136.3z"/>
	<path class="st1" d="M97.2,70.9c0,0.2-0.1,0.3-0.1,0.5c0.1,1.9,0.2,3.7,0.3,5.6c0.1,1.9,0.2,3.9,0.3,5.8c0.1,1.2,0.1,2.4,0.2,3.7
		c-1.4,0-2.8,0-4.2,0c0-0.2,0-0.4,0-0.6c0-5.1,0-10.2,0-15.4c0-0.6,0-1.2,0-1.8c0-0.6-0.4-1-1-1c-0.6,0-1,0.3-1.1,0.9
		c0,0.2,0,0.4,0,0.5c0,5.6,0,11.1,0,16.7c0,0.2,0,0.4,0,0.6c-1.4,0-2.8,0-4.1,0c0-0.2,0-0.3,0-0.5c0.1-2.1,0.2-4.3,0.3-6.4
		c0.1-1.9,0.2-3.8,0.3-5.7c0.1-1.7,0.2-3.4,0.3-5.1c0-0.6-0.4-1-1-1c-0.6,0-1,0.4-1.1,0.9c-0.2,2.9-0.3,5.8-0.5,8.7
		c-0.1,1.6-0.2,3.2-0.3,4.8c-0.1,1.7-0.2,3.5-0.3,5.2c0,0.3,0.1,0.5,0.2,0.8c1,1.6,2.1,3.1,3.1,4.7c0.5,0.7,0.8,1.5,0.8,2.4
		c-0.1,4.1-0.2,8.3-0.3,12.4c-0.1,5.1-0.2,10.1-0.4,15.2c-0.1,2.6-0.1,5.1-0.2,7.7c0,1.8,1,3.4,2.7,3.9c2.8,0.9,5.6-1.1,5.5-4.1
		c-0.1-3.7-0.2-7.4-0.3-11.2c-0.2-7.9-0.4-15.9-0.6-23.8c0-0.9,0.2-1.7,0.7-2.4c1.1-1.5,2.1-3.1,3.1-4.7c0.2-0.3,0.3-0.7,0.3-1.1
		c-0.1-1.9-0.2-3.9-0.3-5.8c-0.1-2.6-0.3-5.1-0.4-7.7c0-0.3-0.1-0.6-0.2-0.9c0,0,0.1-0.1,0.1-0.1c-0.1-1.4-0.1-2.8-0.2-4.2
		c0-0.5-0.5-0.8-1-0.8c-0.5,0-1,0.3-1,0.7C97,69.2,97.1,70,97.2,70.9z"/>
	<path class="st1" d="M63.5,84.8c0.5,3.4,2.3,5.9,5.7,7.3c0.3,0.1,0.3,0.2,0.3,0.5c-0.2,7.4-0.4,14.8-0.5,22.2
		c-0.1,5.1-0.2,10.3-0.3,15.4c0,0.4,0,0.7,0.1,1.1c0.5,2.2,2.4,3.5,4.7,3.3c2-0.2,3.5-2.1,3.5-4.2c-0.1-4.3-0.2-8.5-0.3-12.8
		c0-1.9-0.1-3.8-0.1-5.6c-0.1-5.3-0.2-10.6-0.3-15.9c0-1.3,0-2.6,0-3.8c0.9-0.6,1.9-1.1,2.7-1.7c2.2-1.8,3.1-4.3,3.3-7
		c0.2-2.9-0.3-5.8-1.4-8.5c-0.9-2.1-2-4.1-3.8-5.6c-1.9-1.6-3.9-2.2-6.3-1.3c-1.7,0.6-3,1.8-3.9,3.2C63.9,75.4,62.7,79.9,63.5,84.8"
		/>
	<path class="st1" d="M109.6,105.3c0,0.2,0,0.4,0,0.5c0,5.6,0,11.3,0,16.9c0,2.5,0,5.1,0,7.6c0,1.8,1,3.3,2.6,3.9
		c2.9,1.1,5.8-0.9,5.8-4c0-20.2,0-40.4,0-60.6c0-0.3,0-0.6,0-1c0-0.4-0.2-0.8-0.6-0.9c-0.3-0.1-0.7,0-1.1,0.1
		c-0.2,0.1-0.4,0.3-0.6,0.5c-2.4,2-4.4,4.3-6,6.9c-1.5,2.4-2.6,5-3.3,7.7c-0.6,2.2-1,4.4-1,6.7c0,4.8,0,9.6,0,14.4
		c0,0.8,0.4,1.2,1.2,1.2C107.5,105.3,108.5,105.3,109.6,105.3z"/>
	<path d="M99.1,72.8c0.1,0.3,0.1,0.6,0.2,0.9c0.1,2.6,0.3,5.1,0.4,7.7c0.1,1.9,0.3,3.9,0.3,5.8c0,0.4-0.1,0.8-0.3,1.1
		c-1,1.6-2.1,3.1-3.1,4.7c-0.5,0.7-0.8,1.5-0.7,2.4c0.2,7.9,0.4,15.9,0.6,23.8c0.1,3.7,0.2,7.4,0.3,11.2c0.1,3-2.7,5-5.5,4.1
		c-1.6-0.6-2.7-2.1-2.7-3.9c0-2.6,0.1-5.1,0.2-7.7c0.1-5.1,0.2-10.1,0.4-15.2c0.1-4.1,0.2-8.3,0.3-12.4c0-0.9-0.3-1.7-0.8-2.4
		c-1.1-1.5-2.1-3.1-3.1-4.7c-0.1-0.2-0.2-0.5-0.2-0.8c0.1-1.7,0.2-3.5,0.3-5.2c0.1-1.6,0.2-3.2,0.3-4.8c0.2-2.9,0.3-5.8,0.5-8.7
		c0-0.6,0.5-1,1.1-0.9c0.6,0,1,0.4,1,1c-0.1,1.7-0.2,3.4-0.3,5.1c-0.1,1.9-0.2,3.8-0.3,5.7c-0.1,2.1-0.2,4.3-0.3,6.4
		c0,0.1,0,0.3,0,0.5c1.4,0,2.7,0,4.1,0c0-0.2,0-0.4,0-0.6c0-5.6,0-11.1,0-16.7c0-0.2,0-0.4,0-0.5c0.1-0.6,0.5-0.9,1.1-0.9
		c0.5,0,1,0.4,1,1c0,0.6,0,1.2,0,1.8c0,5.1,0,10.2,0,15.4c0,0.2,0,0.4,0,0.6c1.4,0,2.8,0,4.2,0c-0.1-1.2-0.1-2.5-0.2-3.7
		c-0.1-1.9-0.2-3.9-0.3-5.8c-0.1-1.9-0.2-3.7-0.3-5.6c0-0.2,0-0.3,0.1-0.5C97.8,71.5,98.5,72.2,99.1,72.8z M97.1,88.6
		c-2.9,0-5.8,0-8.7,0c0.7,1.1,1.4,2.1,2.1,3.1c0.7,1,1.1,2.1,1.1,3.3c-0.1,2.7-0.1,5.4-0.2,8.1c-0.1,5.6-0.3,11.2-0.4,16.7
		c-0.1,3.5-0.2,7-0.3,10.5c0,1.2,0.9,2.1,2,2.1c1.2,0,2.1-0.9,2.1-2.2c0-0.7,0-1.3-0.1-2c-0.1-5.8-0.3-11.6-0.4-17.4
		c-0.1-5.3-0.3-10.6-0.4-15.9c0-1.2,0.4-2.3,1-3.3C95.7,90.7,96.3,89.7,97.1,88.6z"/>
	<path class="st2" d="M63.5,84.8c-0.8-4.9,0.4-9.4,3.2-13.5c1-1.4,2.3-2.6,3.9-3.2c2.4-0.9,4.5-0.3,6.3,1.3c1.8,1.5,2.9,3.5,3.8,5.6
		c1.1,2.7,1.6,5.6,1.4,8.5c-0.2,2.8-1.1,5.2-3.3,7c-0.8,0.7-1.8,1.1-2.7,1.7c0,1.2,0,2.5,0,3.8c0.1,5.3,0.2,10.6,0.3,15.9
		c0,1.9,0.1,3.8,0.1,5.6c0.1,4.3,0.2,8.5,0.3,12.8c0,2.1-1.5,3.9-3.5,4.2c-2.3,0.3-4.2-1.1-4.7-3.3c-0.1-0.4-0.1-0.7-0.1-1.1
		c0.1-5.1,0.2-10.3,0.3-15.4c0.2-7.4,0.3-14.8,0.5-22.2c0-0.3-0.1-0.4-0.3-0.5C65.8,90.8,64,88.2,63.5,84.8"/>
	<path class="st1" d="M65.6,84.9c0.6,2.7,2.1,4.6,4.8,5.4c0.9,0.3,1.1,0.5,1.1,1.5c-0.1,3.2-0.1,6.4-0.2,9.6
		c-0.2,8.1-0.4,16.2-0.6,24.3c0,0-0.1,0-0.1,0c0,1.6,0,3.1,0,4.7c0,1.3,0.9,2.2,2.1,2.2c1.2,0,2-0.9,2-2.2c-0.1-3.5-0.1-7-0.2-10.5
		c0-2.1-0.1-4.2-0.2-6.4c-0.1-2.4-0.1-4.9-0.1-7.3c-0.1-4.8-0.2-9.7-0.3-14.5c0-0.7,0.2-1,0.9-1.2c0.7-0.3,1.5-0.5,2.1-0.9
		c1.6-1,2.5-2.6,2.9-4.4c0.5-2.3,0.4-4.5-0.2-6.7c-0.6-2.6-1.6-5-3.5-6.9c-0.9-0.9-1.9-1.7-3.3-1.7c-1.4,0-2.4,0.7-3.4,1.6
		c-1.3,1.3-2.2,2.9-2.9,4.6C65.4,78.9,65,81.9,65.6,84.9"/>
	<path d="M109.6,105.3c-1.1,0-2,0-3,0c-0.8,0-1.2-0.4-1.2-1.2c0-4.8,0-9.6,0-14.4c0-2.3,0.4-4.5,1-6.7c0.7-2.7,1.8-5.3,3.3-7.7
		c1.6-2.6,3.6-4.9,6-6.9c0.2-0.2,0.4-0.4,0.6-0.5c0.3-0.1,0.8-0.2,1.1-0.1c0.4,0.1,0.6,0.5,0.6,0.9c0,0.3,0,0.6,0,1
		c0,20.2,0,40.4,0,60.6c0,3.2-2.9,5.2-5.8,4c-1.5-0.6-2.6-2.1-2.6-3.9c0-2.5,0-5.1,0-7.6c0-5.6,0-11.3,0-16.9
		C109.6,105.6,109.6,105.5,109.6,105.3z M107.5,103.2c1,0,2,0,3,0c0.8,0,1.2,0.4,1.2,1.2c0,5.4,0,10.8,0,16.2c0,3.3,0,6.5,0,9.8
		c0,1.2,0.9,2.1,2.2,2.1c1.2,0,2.1-1,2.1-2.3c0-5.4,0-10.8,0-16.2c0-10.8,0-21.6,0-32.4c0-3.3,0-6.7,0-10c0-0.2,0-0.3,0-0.5
		c-0.1,0.1-0.2,0.1-0.3,0.2c-2.5,2.5-4.5,5.3-5.9,8.5c-1.5,3.4-2.2,6.9-2.2,10.6c0,4.1,0,8.2,0,12.3
		C107.4,102.8,107.5,103,107.5,103.2z"/>
	<path d="M99.1,72.8c-0.6-0.6-1.3-1.3-1.9-1.9C97.1,70,97,69.2,97,68.4c0-0.5,0.5-0.7,1-0.7c0.5,0,0.9,0.3,1,0.8
		c0.1,1.4,0.2,2.8,0.2,4.2C99.2,72.7,99.2,72.8,99.1,72.8z"/>
	<path class="st1" d="M97.1,88.6c-0.7,1.1-1.4,2.2-2.1,3.2c-0.7,1-1.1,2.1-1,3.3c0.1,5.3,0.3,10.6,0.4,15.9
		c0.1,5.8,0.3,11.6,0.4,17.4c0,0.7,0.1,1.3,0.1,2c0,1.2-0.9,2.2-2.1,2.2c-1.2,0-2.1-0.9-2-2.1c0.1-3.5,0.2-7,0.3-10.5
		c0.1-5.6,0.3-11.2,0.4-16.7c0.1-2.7,0.1-5.4,0.2-8.1c0-1.2-0.4-2.3-1.1-3.3c-0.7-1-1.4-2.1-2.1-3.1C91.3,88.6,94.1,88.6,97.1,88.6z
		"/>
	<path class="st3" d="M65.6,84.9c-0.7-3.1-0.2-6.1,0.9-9c0.7-1.7,1.5-3.3,2.9-4.6c0.9-0.9,2-1.6,3.4-1.6c1.4,0,2.4,0.7,3.3,1.7
		c1.9,2,2.9,4.3,3.5,6.9c0.6,2.2,0.7,4.5,0.2,6.7c-0.4,1.8-1.3,3.4-2.9,4.4c-0.6,0.4-1.4,0.7-2.1,0.9c-0.7,0.2-0.9,0.5-0.9,1.2
		c0.1,4.8,0.2,9.7,0.3,14.5c0.1,2.4,0.1,4.9,0.1,7.3c0.1,2.1,0.1,4.2,0.2,6.4c0.1,3.5,0.1,7,0.2,10.5c0,1.3-0.8,2.2-2,2.2
		c-1.2,0-2.1-0.9-2.1-2.2c0-1.6,0-3.1,0-4.7c0,0,0.1,0,0.1,0c0.2-8.1,0.4-16.2,0.6-24.3c0.1-3.2,0.1-6.4,0.2-9.6
		c0-1-0.2-1.2-1.1-1.5C67.7,89.5,66.2,87.6,65.6,84.9"/>
	<path class="st1" d="M107.5,103.2c0-0.2,0-0.4,0-0.6c0-4.1,0-8.2,0-12.3c0-3.7,0.8-7.2,2.2-10.6c1.4-3.2,3.4-6.1,5.9-8.5
		c0.1-0.1,0.2-0.1,0.3-0.2c0,0.2,0,0.4,0,0.5c0,3.3,0,6.7,0,10c0,10.8,0,21.6,0,32.4c0,5.4,0,10.8,0,16.2c0,1.4-0.9,2.3-2.1,2.3
		c-1.2,0-2.1-0.9-2.2-2.1c0-3.3,0-6.5,0-9.8c0-5.4,0-10.8,0-16.2c0-0.8-0.4-1.2-1.2-1.2C109.5,103.2,108.5,103.2,107.5,103.2z"/>
	<line class="st4" x1="131.2" y1="47.5" x2="160.1" y2="30.4"/>
	<path class="st5" d="M49,61.3L12.9,40c0,0-2.6,5.9-2.9,11.7c-0.2,4,1.8,7.5,2.5,10.6c0,0-3.7,2.5,0.2,14.4c0,0,0.5,10.6,5.9,16.9
		c0,0-0.5,7.9,5.5,12l24.7,9.6"/>
	<path class="st5" d="M30.2,97.3c0,0-6.6,1.4-12-3.4"/>
	<path class="st6" d="M177.7,62.2"/>
	<path class="st5" d="M30.1,66.9c0,0-10.8,4.3-17.7-6.3"/>
	<path class="st5" d="M31.4,84.7c0,0-15.4-3.9-18.4-8.4"/>
	<path class="st7" d="M137.3,60.4l35.2-20.8c0,0,2.6,5.9,2.9,11.7c0.2,4-1.8,7.5-2.5,10.6c0,0,3.7,2.5-0.2,14.4
		c0,0-0.5,10.6-5.9,16.9c0,0,0.5,7.9-5.5,12l-23.8,10"/>
	<path class="st5" d="M155.2,96.6c0,0,6.6,1.4,12-3.4"/>
	<path class="st5" d="M155.3,66.6c0,0,10.8,4.3,17.7-6.3"/>
	<path class="st5" d="M154.1,84.3c0,0,15.4-3.9,18.4-8.4"/>
	<g>
		<defs>
			<path id="SVGID_1_" d="M128.9,13.6c0,0,1.5,13.3,1.3,13.8c-0.2,0.6,0.9,6.4,0.9,6.4s4.5,2.2,8.5-0.1s7.8-1.6,13-7
				s6.6-5.2,5.6-6.1c-1-0.8-1.8-4.4-2.8-5.7s0.7-1.8-2.2-2.7c-2.8-0.8-6.4-2.1-7.7-1.9c-1.2,0.2-6.6,0.1-9.2,0.8
				S128.9,13.6,128.9,13.6z"/>
		</defs>
		<clipPath id="SVGID_2_">
			<use xlink:href="#SVGID_1_"  style="overflow:visible;"/>
		</clipPath>
		<g class="st8">
			<g>
				<line class="st6" x1="128.1" y1="33.4" x2="129.3" y2="32.6"/>
				<line class="st9" x1="131.8" y1="31" x2="155.2" y2="15.9"/>
				<line class="st6" x1="156.4" y1="15.1" x2="157.7" y2="14.2"/>
			</g>
		</g>
	</g>
	<line class="st4" x1="53.1" y1="47.5" x2="24.2" y2="30.4"/>
	<g>
		<defs>
			<path id="SVGID_3_" d="M55.4,13.6c0,0-1.5,13.3-1.3,13.8c0.2,0.6-0.9,6.4-0.9,6.4s-4.5,2.2-8.5-0.1s-7.8-1.6-13-7
				s-6.6-5.2-5.6-6.1c1-0.8,1.8-4.4,2.8-5.7s-0.7-1.8,2.2-2.7s6.4-2.1,7.7-1.9c1.2,0.2,6.6,0.1,9.2,0.8S55.4,13.6,55.4,13.6z"/>
		</defs>
		<clipPath id="SVGID_4_">
			<use xlink:href="#SVGID_3_"  style="overflow:visible;"/>
		</clipPath>
		<g class="st10">
			<g>
				<line class="st6" x1="56.2" y1="33.4" x2="55" y2="32.6"/>
				<line class="st9" x1="52.5" y1="31" x2="29.1" y2="15.9"/>
				<line class="st6" x1="27.9" y1="15.1" x2="26.6" y2="14.2"/>
			</g>
		</g>
	</g>
</g>
</svg>
